<svg xmlns="http://www.w3.org/2000/svg" viewBox="0 0 202.88 182.31"><path d="M197.44,73.58c5,0,9-4.7,9-10.5a11.51,11.51,0,0,0-.06-1.18c0-.13,0-.26,0-.4s-.07-.5-.12-.74l-.09-.44-.18-.68c0-.13-.08-.26-.13-.4a8,8,0,0,0-.29-.77l-.06-.16,0-.05a10.21,10.21,0,0,0-.64-1.23l-.07-.12a10.39,10.39,0,0,0-.77-1.07l0-.06a9.49,9.49,0,0,0-.93-1,.69.69,0,0,0-.13-.11,7.5,7.5,0,0,0-.9-.7l-.12-.1-.06,0a8.13,8.13,0,0,0-.91-.51l-.18-.08c-.26-.11-.53-.22-.8-.31l-.3-.09a6.43,6.43,0,0,0-.76-.17l-.3-.06a7.85,7.85,0,0,0-1.08-.08c-5,0-9,4.7-9,10.51a11.65,11.65,0,0,0,1.45,5.7l-30.42,23-3.71-44.45c4.48-.61,8-5.05,8-10.44,0-.33,0-.66,0-1l0-.28-.09-.7a2.93,2.93,0,0,1-.05-.29c0-.24-.1-.48-.16-.72,0-.07,0-.14,0-.2a12.08,12.08,0,0,0-.63-1.75c0-.09-.09-.18-.13-.26s-.17-.34-.26-.5l-.21-.37-.08-.13-.08-.12c-.16-.24-.33-.48-.5-.71l-.14-.18c-.2-.24-.4-.47-.62-.69l-.1-.1a9.05,9.05,0,0,0-1.65-1.31l-.18-.1a6.7,6.7,0,0,0-.7-.37l-.3-.13-.64-.23-.34-.1c-.22-.06-.45-.11-.68-.15l-.32,0a6.8,6.8,0,0,0-1-.08c-5,0-9,4.71-9,10.51a11.16,11.16,0,0,0,3.23,8L124.46,82.16,111,38.48c3.48-1.46,6-5.33,6-9.89,0-.32,0-.65,0-1l0-.32c0-.21-.05-.42-.09-.63l-.06-.36c0-.2-.08-.39-.13-.59s-.05-.22-.08-.33c-.08-.28-.16-.55-.26-.82a2.85,2.85,0,0,0-.12-.31c-.07-.18-.14-.36-.22-.53l-.15-.32-.27-.53-.14-.24a.83.83,0,0,0-.07-.13s0,0,0,0c-.2-.32-.42-.63-.65-.93l0,0a8.21,8.21,0,0,0-.67-.77l-.08-.09a8.85,8.85,0,0,0-1.67-1.34l-.15-.09a7.39,7.39,0,0,0-.74-.38l-.3-.13c-.21-.09-.43-.17-.65-.24l-.33-.1c-.23-.06-.46-.11-.7-.15a2.84,2.84,0,0,0-.31-.06,8.76,8.76,0,0,0-1-.07c-5,0-9,4.7-9,10.5a9.1,9.1,0,0,0,0,.91,1.64,1.64,0,0,0,0,.23c0,.23,0,.45.08.67a1.85,1.85,0,0,0,0,.23c0,.22.08.44.13.66,0,.06,0,.13,0,.19.06.23.12.46.19.69,0,0,0,0,0,.06s0,0,0,.06a11.32,11.32,0,0,0,.82,1.92l.1.18c.14.25.29.49.45.73a.83.83,0,0,1,.08.12c.19.27.39.52.6.77l.11.12a7.94,7.94,0,0,0,.57.59l.14.13a8.17,8.17,0,0,0,.72.6l.08.06c.23.16.46.31.7.45a1.18,1.18,0,0,0,.19.11,9,9,0,0,0,.82.41L91.54,82.16,66.93,44.73a11.3,11.3,0,0,0,3-7.86c0-.36,0-.72,0-1.07s0-.44-.08-.66,0-.25,0-.37a8.43,8.43,0,0,0-.2-.9s0-.06,0-.09a10.85,10.85,0,0,0-2.38-4.49l-.17-.2L66.87,29l-.35-.34c-.1-.1-.21-.19-.32-.28l-.36-.29-.33-.23a4.68,4.68,0,0,0-.4-.27l-.34-.19-.43-.23L64,27a3.66,3.66,0,0,0-.46-.18c-.12,0-.25-.08-.37-.12l-.46-.13-.47-.08c-.13,0-.25-.05-.38-.06a6.65,6.65,0,0,0-.89-.06c-5,0-9,4.71-9,10.51A10.93,10.93,0,0,0,52,38c0,.1,0,.21,0,.31,0,.27.07.55.12.82,0,.11,0,.21.07.32s.12.52.19.77l.1.31c.08.25.17.49.26.73,0,.06,0,.13.07.19l0,.09a10.79,10.79,0,0,0,.56,1.13h0a11.78,11.78,0,0,0,.67,1l.14.19a10.15,10.15,0,0,0,.74.86l0,0a10.56,10.56,0,0,0,.87.78l.21.15c.25.19.51.36.77.52l.22.12a9.18,9.18,0,0,0,1,.48l.2.06a6.82,6.82,0,0,0,.88.26l.31.07a8.35,8.35,0,0,0,1.12.13l-2.11,44.4L26.22,68.57a11.73,11.73,0,0,0,1.34-5.49c0-5.81-4-10.51-9-10.51a7.89,7.89,0,0,0-.84,0l-.27,0a5.3,5.3,0,0,0-.55.1l-.3.07c-.18,0-.35.1-.52.15l-.28.1c-.22.08-.43.17-.64.27l-.22.11a6.65,6.65,0,0,0-.58.33l-.29.19-.39.28-.29.23L13,54.8l-.27.25c-.13.13-.26.27-.38.41s-.25.28-.37.43-.21.26-.31.4-.17.24-.25.37a4,4,0,0,0-.22.34c-.09.14-.17.28-.25.42l-.16.31-.24.5s0,.08-.05.13a11.77,11.77,0,0,0-.65,2l-.09.38c0,.15,0,.3-.07.45a5.59,5.59,0,0,0-.08.59c0,.12,0,.23,0,.34,0,.32,0,.65,0,1,0,5.8,4,10.5,9,10.5a7.85,7.85,0,0,0,3.58-.87L54,158.4a36,36,0,0,0-35.44,29.7c-.11.56-.2,1.13-.27,1.72-.06.42-.11.84-.14,1.28a3.57,3.57,0,0,0,0,.47c0,.32-.05.65-.06,1s0,.51,0,.78,0,.71,0,1.07H198v0c0-.36,0-.72,0-1.07s0-.52,0-.78,0-.66-.06-1a3.57,3.57,0,0,0,0-.47c0-.44-.08-.86-.14-1.28-.07-.59-.16-1.16-.27-1.72v0A36,36,0,0,0,162,158.4l31.86-85.69A7.85,7.85,0,0,0,197.44,73.58Z" transform="translate(-6.56 -15.09)" fill="#231f20" stroke="#fff" stroke-miterlimit="10" stroke-width="6"/><path d="M198,194.4H18l.56-6.3c4.38-22.79,34.56-22.79,89.44-22.79s85.06,0,89.44,22.79c.11.56.2,1.13.27,1.72.06.43.1.85.14,1.28a3.57,3.57,0,0,1,0,.47c0,.32.05.65.06,1s0,.52,0,.78S198,194,198,194.4Z" transform="translate(-6.56 -15.09)" fill="#1d787f"/><path d="M18.29,189.82c.07-.59.16-1.16.27-1.72L18,194.4c0-.36,0-.72,0-1.07s0-.52,0-.78,0-.66.06-1a3.57,3.57,0,0,1,0-.47C18.18,190.66,18.23,190.24,18.29,189.82Z" transform="translate(-6.56 -15.09)" fill="#bde5ed"/><path d="M197.44,188.1c-4.38-22.79-34.56-22.79-89.44-22.79s-85.06,0-89.44,22.79A36,36,0,0,1,54,158.4H162A36,36,0,0,1,197.44,188.1Z" transform="translate(-6.56 -15.09)" fill="#2bafb2"/><path d="M81.64,113c-.2.27-.42.52-.64.78" transform="translate(-6.56 -15.09)" fill="none"/><path d="M198,194.4c0-.36,0-.72,0-1.07s0-.52,0-.78,0-.66-.06-1a3.57,3.57,0,0,0,0-.47c0-.44-.08-.86-.14-1.28-.07-.59-.16-1.16-.27-1.72" transform="translate(-6.56 -15.09)" fill="#93d5d7"/><path d="M18.56,188.1,18,194.4c0-.36,0-.72,0-1.07s0-.52,0-.78,0-.66.06-1a3.57,3.57,0,0,1,0-.47c0-.44.08-.86.14-1.28C18.36,189.23,18.45,188.66,18.56,188.1Z" transform="translate(-6.56 -15.09)" fill="#93d5d7"/><path d="M40.32,106.45a1,1,0,0,1-.33-.08" transform="translate(-6.56 -15.09)" fill="none"/><path d="M206.44,63.08c0,5.8-4,10.5-9,10.5a7.85,7.85,0,0,1-3.58-.87L162,158.4H54L22.14,72.71a7.85,7.85,0,0,1-3.58.87c-5,0-9-4.7-9-10.5s4-10.51,9-10.51,9,4.7,9,10.51a11.73,11.73,0,0,1-1.34,5.49L58.53,91.76l2.11-44.4C55.82,47.17,52,42.54,52,36.87s4-10.51,9-10.51,9,4.71,9,10.51a11.3,11.3,0,0,1-3,7.86L91.54,82.16,105,38.48c-3.48-1.46-6-5.33-6-9.89,0-5.8,4-10.5,9-10.5s9,4.7,9,10.5c0,4.56-2.48,8.43-6,9.89l13.42,43.68L149,44.91a11.16,11.16,0,0,1-3.23-8c0-5.8,4-10.51,9-10.51s9,4.71,9,10.51c0,5.39-3.48,9.83-8,10.44l3.71,44.45,30.42-23a11.65,11.65,0,0,1-1.45-5.7c0-5.81,4-10.51,9-10.51S206.44,57.27,206.44,63.08Z" transform="translate(-6.56 -15.09)" fill="#1d787f"/><path d="M205.46,58.31s-.35,6.73-3,10.53-9.68,3.2-9.68,3.2L139,158.4H54L22.14,72.71a7.85,7.85,0,0,1-3.58.87c-5,0-9-4.7-9-10.5A11.75,11.75,0,0,1,10,59.75h0c.07-.08.5-.59,1.17-1.23l.39-.36a17,17,0,0,1,1.59-1.26l.61-.4a10.85,10.85,0,0,1,1-.52l.25-.12.48-.2.33-.1a3,3,0,0,1,.43-.12l.24-.06a3.35,3.35,0,0,1,.44-.07,5.49,5.49,0,0,1,.58,0,4.45,4.45,0,0,1,3.18,1.34c4.49,4.31,3.69,13.86,3.69,13.86L58.53,91.76l2.11-44.4a9.07,9.07,0,0,1-7.77-5.89S53,32.67,57,29.52s10.42,0,10.42,0a11.73,11.73,0,0,1-.45,15.21L91.54,82.16,106.27,38.6,105,38.48a9.87,9.87,0,0,1-5.4-6.25s.78-9.37,4.47-11.12a10.11,10.11,0,0,1,11.28,1.38l0,0A11.76,11.76,0,0,1,117,28.59c0,4.56-2.48,8.43-6,9.89l13.42,43.68L151,45.37s-4.62-2.31-3.43-8.62,6.07-9.55,9.1-8.47a57.13,57.13,0,0,1,5.34,2.4,11.61,11.61,0,0,1,1.73,6.19c0,5.39-3.48,9.83-8,10.44l3.71,44.45,32.91-21.29s-4.08-8.44-1-12.16,5-4.93,8.7-4.48a11.09,11.09,0,0,0,1.8.07A10.15,10.15,0,0,1,205.46,58.31Z" transform="translate(-6.56 -15.09)" fill="#1d787f"/><path d="M206.44,63.08c0,5.8-4,10.5-9,10.5a7.85,7.85,0,0,1-3.58-.87L162,158.4H54s87.62-.81,115.18-42.53C180.47,98.78,192.76,72,192.76,72s7,.62,9.68-3.2,3-10.53,3-10.53A11.82,11.82,0,0,1,206.44,63.08Z" transform="translate(-6.56 -15.09)" fill="#124344"/><path d="M24.38,70.47s.8-9.55-3.69-13.86S10,59.75,10,59.75c1.18-4.17,4.56-7.18,8.53-7.18,5,0,9,4.7,9,10.51a11.73,11.73,0,0,1-1.34,5.49L58.53,91.76Z" transform="translate(-6.56 -15.09)" fill="#2bafb2"/><path d="M67.38,29.52S61,26.36,57,29.52s-4.09,12-4.09,12a11.94,11.94,0,0,1-.91-4.6c0-5.8,4-10.51,9-10.51A8.32,8.32,0,0,1,67,29.09Z" transform="translate(-6.56 -15.09)" fill="#2bafb2"/><polygon points="99.71 23.51 84.98 67.08 98.4 23.39 99.71 23.51" fill="#2bafb2"/><path d="M115.31,22.49A10.11,10.11,0,0,0,104,21.11c-3.69,1.75-4.47,11.12-4.47,11.12A12,12,0,0,1,99,28.59c0-5.8,4-10.5,9-10.5A8.65,8.65,0,0,1,115.31,22.49Z" transform="translate(-6.56 -15.09)" fill="#2bafb2"/><path d="M162,30.68a57.13,57.13,0,0,0-5.34-2.4c-3-1.08-7.91,2.16-9.1,8.47S151,45.37,151,45.37L124.46,82.16,149,44.91a11.16,11.16,0,0,1-3.23-8c0-5.8,4-10.51,9-10.51A8.67,8.67,0,0,1,162,30.68Z" transform="translate(-6.56 -15.09)" fill="#2bafb2"/><path d="M201.83,53.9a11.09,11.09,0,0,1-1.8-.07c-3.69-.45-5.67.77-8.7,4.48s.2,11.92.2,11.92L159.47,91.76l30.42-23a11.65,11.65,0,0,1-1.45-5.7c0-5.81,4-10.51,9-10.51A8,8,0,0,1,201.83,53.9Z" transform="translate(-6.56 -15.09)" fill="#2bafb2"/></svg>