<svg xmlns="http://www.w3.org/2000/svg" viewBox="0 0 108.9 122.48"><path d="M160,179.18H56.05c0-.21,0-.41,0-.62s0-.3,0-.45,0-.38,0-.56a2.28,2.28,0,0,1,0-.27c0-.25,0-.49.08-.74s.1-.67.16-1c2.53-13.16,19.95-13.16,51.63-13.16s49.1,0,51.63,13.16c.07.32.12.65.16,1s.06.49.08.74a2.28,2.28,0,0,1,0,.27c0,.18,0,.37,0,.56s0,.3,0,.45S160,179,160,179.18Z" transform="translate(-56.05 -58.69)" class="black-fill"/><path d="M159.63,175.55c-2.53-13.16-19.95-13.16-51.63-13.16s-49.1,0-51.63,13.16A20.77,20.77,0,0,1,76.83,158.4h62.34A20.77,20.77,0,0,1,159.63,175.55Z" transform="translate(-56.05 -58.69)" fill="#2bafb2"/><path d="M164.94,181.17c0-.22,0-.45,0-.67s0-.33,0-.5,0-.41,0-.62a2.64,2.64,0,0,0,0-.29q0-.42-.09-.81c0-.38-.1-.74-.17-1.09" transform="translate(-56.05 -58.69)" fill="#93d5d7"/><path d="M76.83,158.4c9.93-6.76,19.26-30.94,19.94-50.07H85.23L83.52,97.81l10.33-6a19.56,19.56,0,1,1,28.3,0l10.33,6-1.71,10.52H119.23c.68,19.13,9.33,43.18,19.94,50.07Z" transform="translate(-56.05 -58.69)" class="black-fill"/><path d="M85.23,108.33H96.77c4.49,0,30.73,50.07,42.4,50.07A37,37,0,0,1,128,143.78c-3.29-7.93-7.8-19.14-8.76-35.45h11.54l.43-2.65H84.8Z" transform="translate(-56.05 -58.69)" fill="#124344"/><path d="M94.1,126.06a221.68,221.68,0,0,1-9.3,32.34h-8C83.82,153.64,90.51,140.25,94.1,126.06Z" transform="translate(-56.05 -58.69)" fill="#2bafb2"/><polygon points="37.8 33.07 33.94 39.9 27.48 39.12 37.8 33.07" fill="#2bafb2"/><path d="M110.67,58.88c-1-.06-7.84-.23-15,7-7.37,7.36-6.22,18-6.13,18.74a19.36,19.36,0,0,1-1.06-6.35A19.56,19.56,0,0,1,108,58.69,18,18,0,0,1,110.67,58.88Z" transform="translate(-56.05 -58.69)" fill="#2bafb2"/><path d="M132.48,97.81,131,106.72l-8.7-.71s2.17-3.08,4.15-6.59l-4.91-7.55H109.8s10.06-1.78,13.82-9.89S120,62.81,120,62.81a19.56,19.56,0,0,1,2.15,29Z" transform="translate(-56.05 -58.69)" fill="#124344"/></svg>