<svg xmlns="http://www.w3.org/2000/svg" viewBox="0 0 180 181.16"><path d="M198,194.4H18l.56-6.3c4.38-22.79,34.56-22.79,89.44-22.79s85.06,0,89.44,22.79c.11.56.2,1.13.27,1.72.06.43.1.85.14,1.28a3.57,3.57,0,0,1,0,.47c0,.32.05.65.06,1s0,.52,0,.78S198,194,198,194.4Z" transform="translate(-18 -13.24)" fill="#1d787f"/><path d="M18.29,189.82c.07-.59.16-1.16.27-1.72L18,194.4c0-.36,0-.72,0-1.07s0-.52,0-.78,0-.66.06-1a3.57,3.57,0,0,1,0-.47C18.18,190.66,18.23,190.24,18.29,189.82Z" transform="translate(-18 -13.24)" fill="#bde5ed"/><path d="M197.44,188.1c-4.38-22.79-34.56-22.79-89.44-22.79s-85.06,0-89.44,22.79A36,36,0,0,1,54,158.4H162A36,36,0,0,1,197.44,188.1Z" transform="translate(-18 -13.24)" fill="#2bafb2"/><path d="M81.64,119.49c-.2.23-.42.45-.64.67" transform="translate(-18 -13.24)" fill="none"/><path d="M198,194.4c0-.36,0-.72,0-1.07s0-.52,0-.78,0-.66-.06-1a3.57,3.57,0,0,0,0-.47c0-.44-.08-.86-.14-1.28-.07-.59-.16-1.16-.27-1.72" transform="translate(-18 -13.24)" fill="#93d5d7"/><path d="M18.56,188.1,18,194.4c0-.36,0-.72,0-1.07s0-.52,0-.78,0-.66.06-1a3.57,3.57,0,0,1,0-.47c0-.44.08-.86.14-1.28C18.36,189.23,18.45,188.66,18.56,188.1Z" transform="translate(-18 -13.24)" fill="#93d5d7"/><path d="M40.32,113.9a1.3,1.3,0,0,1-.33-.07" transform="translate(-18 -13.24)" fill="none"/><path d="M130.21,40.79a21.53,21.53,0,0,1-1.42,3.43C129.28,43.06,129.75,41.91,130.21,40.79Z" transform="translate(-18 -13.24)" fill="#bde5ed"/><path d="M47.46,76.74" transform="translate(-18 -13.24)" fill="#2bafb2"/><polygon points="158.87 97.24 136.08 145.16 43.92 145.16 21.13 97.24 83.24 97.24 76.65 67.2 36.65 54.46 77.17 44.8 90 0 102.83 44.8 143.35 54.46 103.35 67.2 96.76 97.24 158.87 97.24" fill="#bde5ed"/><polygon points="158.87 97.24 136.08 145.16 43.92 145.16 21.13 97.24 83.24 97.24 76.65 67.2 36.65 54.46 77.17 44.8 90 0 102.83 44.8 143.35 54.46 103.35 67.2 96.76 97.24 158.87 97.24" fill="#1d787f"/><path d="M61.92,158.4s68.29.58,85-10.19c20-12.9,30-37.73,30-37.73L154.08,158.4Z" transform="translate(-18 -13.24)" fill="#124344"/><polygon points="90 97.24 90 0 102.83 44.8 105.81 55.64 143.35 54.46 103.35 67.2 96.76 97.24 90 97.24" fill="#124344"/><polygon points="36.65 54.46 82.21 49.91 90 0 77.17 44.8 36.65 54.46" fill="#2bafb2"/><polygon points="37.89 132.48 29.46 104.38 83.24 97.24 21.13 97.24 37.89 132.48" fill="#2bafb2"/></svg>