<svg xmlns="http://www.w3.org/2000/svg" viewBox="0 0 180 184.13"><path d="M159.81,108.07c0,41.12-23.19,74.46-51.81,74.46s-51.81-33.34-51.81-74.46c0-29.7,12.1-55.33,29.6-67.28a23,23,0,0,1-1.13-7.17,23.34,23.34,0,1,1,46.68,0,23,23,0,0,1-1.13,7.17c-.46,1.12-.93,2.27-1.42,3.43-8,19.33-19.09,43.44-19.09,65.09.2.2,10.68,0,10.68,0,0-27.17,18.08-61.47,18.08-61.47C151.4,61.38,159.81,83.31,159.81,108.07Z" transform="translate(-18 -10.27)" fill="#bde5ed"/><path d="M130.21,158.4h16c-9.47,14.83-23.07,24.13-38.18,24.13-19.36,0-36.24-15.26-45.13-37.87a208.66,208.66,0,0,1-2.35-50.91c2.11-28.22,26.77-49.53,26.77-49.53S86.49,29,91.51,19.77c4.5-8.29,15.32-9.32,17.47-9.45l-4.09.16a22.88,22.88,0,0,1,3.11-.21c.44,0,.88,0,1.32,0h0a23.27,23.27,0,0,1,17.8,10c.19.26.36.52.52.79l0,0c.29.44.56.9.81,1.37l0,.09c1.88,4.61-.75,13.6-10.16,33.58-10.55,22.42-8.71,53.15-8.71,53.15a49,49,0,0,0,5,.08c2.77,0,5.67-.08,5.67-.08,0-27.17,18.08-61.47,18.08-61.47C168.54,95.16,130.21,158.4,130.21,158.4Z" transform="translate(-18 -10.27)" fill="#bde5ed"/><path d="M198,194.4H18l.56-6.3c4.38-22.79,34.56-22.79,89.44-22.79s85.06,0,89.44,22.79c.11.56.2,1.13.27,1.72.06.43.1.85.14,1.28a3.57,3.57,0,0,1,0,.47c0,.32.05.65.06,1s0,.52,0,.78S198,194,198,194.4Z" transform="translate(-18 -10.27)" fill="#bde5ed"/><path d="M18.29,189.82c.07-.59.16-1.16.27-1.72L18,194.4c0-.36,0-.72,0-1.07s0-.52,0-.78,0-.66.06-1a3.57,3.57,0,0,1,0-.47C18.18,190.66,18.23,190.24,18.29,189.82Z" transform="translate(-18 -10.27)" fill="#bde5ed"/><path d="M197.44,188.1c-4.38-22.79-34.56-22.79-89.44-22.79s-85.06,0-89.44,22.79A36,36,0,0,1,54,158.4H162A36,36,0,0,1,197.44,188.1Z" transform="translate(-18 -10.27)" fill="#e5f5f9"/><path d="M81.64,119.49c-.2.23-.42.45-.64.67" transform="translate(-18 -10.27)" fill="none"/><path d="M198,194.4c0-.36,0-.72,0-1.07s0-.52,0-.78,0-.66-.06-1a3.57,3.57,0,0,0,0-.47c0-.44-.08-.86-.14-1.28-.07-.59-.16-1.16-.27-1.72" transform="translate(-18 -10.27)" fill="#93d5d7"/><path d="M18.56,188.1,18,194.4c0-.36,0-.72,0-1.07s0-.52,0-.78,0-.66.06-1a3.57,3.57,0,0,1,0-.47c0-.44.08-.86.14-1.28C18.36,189.23,18.45,188.66,18.56,188.1Z" transform="translate(-18 -10.27)" fill="#93d5d7"/><path d="M40.32,113.9a1.3,1.3,0,0,1-.33-.07" transform="translate(-18 -10.27)" fill="none"/><path d="M130.21,40.79a21.53,21.53,0,0,1-1.42,3.43C129.28,43.06,129.75,41.91,130.21,40.79Z" transform="translate(-18 -10.27)" fill="#bde5ed"/><path d="M131.34,33.62a23,23,0,0,1-1.13,7.17c-.46,1.12-.93,2.27-1.42,3.43-8,19.33-19.09,43.44-19.09,65.09,0,0-1.84-30.73,8.71-53.15,9.41-20,12-29,10.16-33.58A23.2,23.2,0,0,1,131.34,33.62Z" transform="translate(-18 -10.27)" fill="#75aaaa"/><path d="M159.81,108.07c0,19.4-5.17,37.07-13.63,50.33h-16s38.33-63.24,8.25-110.56C151.4,61.38,159.81,83.31,159.81,108.07Z" transform="translate(-18 -10.27)" fill="#75aaaa"/><path d="M109,10.32c-2.15.13-13,1.16-17.47,9.45-5,9.23-4.26,21.62-4.26,21.62S67.65,60.08,63.09,88c-4.65,28.48-.28,56.51-.22,56.65l-.74-1.94a101.14,101.14,0,0,1-5.94-34.65c0-29.7,12.1-55.33,29.6-67.28a23,23,0,0,1-1.13-7.17,23.35,23.35,0,0,1,20.23-23.14Z" transform="translate(-18 -10.27)" fill="#e5f5f9"/></svg>