<svg xmlns="http://www.w3.org/2000/svg" viewBox="0 0 180 172.8"><path d="M198,194.4H18c0-.36,0-.72,0-1.07s0-.52,0-.78,0-.66.06-1a3.57,3.57,0,0,1,0-.47c0-.43.08-.85.14-1.28.07-.59.16-1.16.27-1.72A36,36,0,0,1,54,158.4a26.92,26.92,0,0,1,7.91-19.09L81,120.16c.22-.22.44-.44.64-.67A18,18,0,0,0,81,94.7a33.17,33.17,0,0,1-14.44,8.61c-7.47,2.21-13.78,1.61-16.29,4.12-4.05,4-6.21,6.31-9.16,6.56a2.44,2.44,0,0,1-.79-.09c-3.09-.66-11-5.1-14.18-9.5-1.25-1.72-1.77-3.43-1-4.91,2.95-5.65,31.21-27.76,32.93-36.12C59.74,55.28,60.89,43,66,41.11l.5-.14.23-.06.09,0C72.29,39.1,81,21.6,81,21.6a6.94,6.94,0,0,1,2.38,1,11.38,11.38,0,0,1,1.71,1.26c2.18,1.93,10.81,16.85,11.08,17.32h0C133.66,51.61,162,100.12,162,158.4a36,36,0,0,1,35.44,29.7c.11.56.2,1.13.27,1.72.06.43.1.85.14,1.28a3.57,3.57,0,0,1,0,.47c0,.32.05.65.06,1s0,.52,0,.78S198,194,198,194.4Z" transform="translate(-18 -21.6)" fill="#bde5ed"/><path d="M83.38,22.56S82.64,41.83,76,43.72C59.13,48.47,64.57,65.08,61.21,72.4s-37,25.48-36.15,30a2.64,2.64,0,0,1,.08-3c2.95-5.65,31.21-27.76,32.93-36.12C59.74,55.28,60.89,43,66,41.11l.5-.14.23-.06.09,0C72.29,39.1,81,21.6,81,21.6A6.94,6.94,0,0,1,83.38,22.56Z" transform="translate(-18 -21.6)" fill="#e5f5f9"/><path d="M197.44,188.1c-4.38-22.79-34.56-22.79-89.44-22.79s-85.06,0-89.44,22.79A36,36,0,0,1,54,158.4H162A36,36,0,0,1,197.44,188.1Z" transform="translate(-18 -21.6)" fill="#e5f5f9"/><path d="M86.27,107.25s.42-5.08-5.27-12.55L93.73,82S91.56,96,86.27,107.25Z" transform="translate(-18 -21.6)" fill="#75aaaa"/><path d="M81.64,119.49c-.2.23-.42.45-.64.67" transform="translate(-18 -21.6)" fill="#93d5d7"/><path d="M198,194.4c0-.36,0-.72,0-1.07s0-.52,0-.78,0-.66-.06-1a3.57,3.57,0,0,0,0-.47c0-.44-.08-.86-.14-1.28-.07-.59-.16-1.16-.27-1.72" transform="translate(-18 -21.6)" fill="#93d5d7"/><path d="M18.56,188.1c-.11.56-.2,1.13-.27,1.72-.06.42-.11.84-.14,1.28a3.57,3.57,0,0,0,0,.47c0,.32-.05.65-.06,1s0,.51,0,.78,0,.71,0,1.07" transform="translate(-18 -21.6)" fill="#93d5d7"/><path d="M62.16,104.36c-4.71,1.54-9.27.79-11.68,3-4.17,3.93-6.42,6.33-9.37,6.58a2.44,2.44,0,0,1-.79-.09c2.63.24,5.81-8.94,11.49-14.13C54,97.75,62.16,104.36,62.16,104.36Z" transform="translate(-18 -21.6)" fill="#75aaaa"/><path d="M40.32,113.9a1.3,1.3,0,0,1-.33-.07" transform="translate(-18 -21.6)" fill="#93d5d7"/><path d="M146.17,158.4H162s2.56-41.79-20.19-78.83C160.21,136.59,146.17,158.4,146.17,158.4Z" transform="translate(-18 -21.6)" fill="#75aaaa"/></svg>