<svg xmlns="http://www.w3.org/2000/svg" viewBox="0 0 196.88 156.2"><path d="M198,194.4H18l.56-6.3c4.38-22.79,34.56-22.79,89.44-22.79s85.06,0,89.44,22.79c.11.56.2,1.13.27,1.72.06.43.1.85.14,1.28a3.57,3.57,0,0,1,0,.47c0,.32.05.65.06,1s0,.52,0,.78S198,194,198,194.4Z" transform="translate(-9.56 -38.2)" fill="#bde5ed"/><path d="M18.29,189.82c.07-.59.16-1.16.27-1.72L18,194.4c0-.36,0-.72,0-1.07s0-.52,0-.78,0-.66.06-1a3.57,3.57,0,0,1,0-.47C18.18,190.66,18.23,190.24,18.29,189.82Z" transform="translate(-9.56 -38.2)" fill="#bde5ed"/><path d="M197.44,188.1c-4.38-22.79-34.56-22.79-89.44-22.79s-85.06,0-89.44,22.79A36,36,0,0,1,54,158.4H162A36,36,0,0,1,197.44,188.1Z" transform="translate(-9.56 -38.2)" fill="#e5f5f9"/><path d="M81.64,119.49c-.2.23-.42.45-.64.67" transform="translate(-9.56 -38.2)" fill="none"/><path d="M198,194.4c0-.36,0-.72,0-1.07s0-.52,0-.78,0-.66-.06-1a3.57,3.57,0,0,0,0-.47c0-.44-.08-.86-.14-1.28-.07-.59-.16-1.16-.27-1.72" transform="translate(-9.56 -38.2)" fill="#93d5d7"/><path d="M18.56,188.1,18,194.4c0-.36,0-.72,0-1.07s0-.52,0-.78,0-.66.06-1a3.57,3.57,0,0,1,0-.47c0-.44.08-.86.14-1.28C18.36,189.23,18.45,188.66,18.56,188.1Z" transform="translate(-9.56 -38.2)" fill="#93d5d7"/><path d="M40.32,113.9a1.3,1.3,0,0,1-.33-.07" transform="translate(-9.56 -38.2)" fill="none"/><path d="M130.21,40.79a21.53,21.53,0,0,1-1.42,3.43C129.28,43.06,129.75,41.91,130.21,40.79Z" transform="translate(-9.56 -38.2)" fill="#bde5ed"/><path d="M47.46,76.74" transform="translate(-9.56 -38.2)" fill="#2bafb2"/><path d="M206.44,76.74A9,9,0,0,1,193.86,85L162,158.4H54L22.14,85a9,9,0,1,1,4.08-3.54l32.31,19.86,2.11-38A9,9,0,1,1,66.93,61L91.54,93.09,105,55.67a9,9,0,1,1,6.08,0l13.42,37.42L149,61.18a9,9,0,1,1,6.81,2l3.71,38.08,30.42-19.68a9,9,0,1,1,16.55-4.89Z" transform="translate(-9.56 -38.2)" fill="#bde5ed"/><path d="M205.46,72.66s-.35,5.76-3,9-9.68,2.74-9.68,2.74L139,158.4H54L22.14,85A9,9,0,0,1,9.56,76.74,8.74,8.74,0,0,1,10,73.89h0c.07-.07.5-.5,1.17-1l.39-.31a16.84,16.84,0,0,1,1.59-1.08l.61-.34q.45-.24,1-.45l.25-.1.48-.17.33-.09.43-.1.24,0a3.32,3.32,0,0,1,.44-.06,5.49,5.49,0,0,1,.58,0,4.86,4.86,0,0,1,3.18,1.15c4.49,3.69,3.69,11.87,3.69,11.87l34.15,18.24,2.11-38a9,9,0,0,1-7.77-5.05S53,50.69,57,48s10.42,0,10.42,0a9,9,0,0,1-.45,13L91.54,93.09l14.73-37.32-1.31-.1a9,9,0,0,1-5.4-5.35s.78-8,4.47-9.53,8.19-1.28,11.28,1.18l0,0A9,9,0,0,1,111,55.67l13.42,37.42L151,61.57a6.35,6.35,0,0,1-3.43-7.38c1.19-5.41,6.07-8.18,9.1-7.26,1.53.47,3.63,1.33,5.34,2.06a8.9,8.9,0,0,1,1.73,5.3,9,9,0,0,1-8,8.94l3.71,38.08,32.91-18.24s-4.08-7.23-1-10.41,5-4.23,8.7-3.84a12.3,12.3,0,0,0,1.8.06A9.12,9.12,0,0,1,205.46,72.66Z" transform="translate(-9.56 -38.2)" fill="#bde5ed"/><path d="M206.44,76.74A9,9,0,0,1,193.86,85L162,158.4H54s87.62-.7,115.18-36.43c11.29-14.65,23.58-37.55,23.58-37.55s7,.53,9.68-2.74,3-9,3-9A8.87,8.87,0,0,1,206.44,76.74Z" transform="translate(-9.56 -38.2)" fill="#75aaaa"/><path d="M24.38,83.07s.8-8.18-3.69-11.87S10,73.89,10,73.89a9,9,0,1,1,16.19,7.56l32.31,19.86Z" transform="translate(-9.56 -38.2)" fill="#e5f5f9"/><path d="M67.38,48S61,45.29,57,48s-4.09,10.24-4.09,10.24A9,9,0,0,1,67,47.63Z" transform="translate(-9.56 -38.2)" fill="#e5f5f9"/><polygon points="96.71 17.57 81.98 54.89 95.4 17.47 96.71 17.57" fill="#e5f5f9"/><path d="M115.31,42c-3.09-2.46-7.58-2.68-11.28-1.18s-4.47,9.53-4.47,9.53A9,9,0,0,1,115.31,42Z" transform="translate(-9.56 -38.2)" fill="#e5f5f9"/><path d="M162,49c-1.71-.73-3.81-1.59-5.34-2.06-3-.92-7.91,1.85-9.1,7.26A6.35,6.35,0,0,0,151,61.57L124.46,93.09,149,61.18A9,9,0,1,1,162,49Z" transform="translate(-9.56 -38.2)" fill="#e5f5f9"/><path d="M201.83,68.88a12.3,12.3,0,0,1-1.8-.06c-3.69-.39-5.67.66-8.7,3.84s.2,10.21.2,10.21l-32.06,18.44,30.42-19.68a9,9,0,0,1,7.55-13.89A9,9,0,0,1,201.83,68.88Z" transform="translate(-9.56 -38.2)" fill="#e5f5f9"/></svg>