<svg xmlns="http://www.w3.org/2000/svg" viewBox="0 0 186 190.13"><path d="M198,194.4c0-.36,0-.72,0-1.07s0-.52,0-.78,0-.66-.06-1a3.57,3.57,0,0,0,0-.47c0-.44-.08-.86-.14-1.28-.07-.59-.16-1.16-.27-1.72v0A36,36,0,0,0,162,158.4H146.18l0-.07c.35-.55.69-1.12,1-1.69.18-.3.37-.59.54-.9.34-.58.66-1.17,1-1.77.17-.31.34-.61.51-.93.31-.59.62-1.2.92-1.82l.49-1c.29-.61.57-1.23.85-1.86.16-.35.32-.69.47-1,.27-.62.52-1.24.78-1.88l.45-1.12c.24-.63.48-1.26.71-1.89.14-.4.29-.8.43-1.21.22-.63.43-1.26.63-1.9.14-.43.28-.86.41-1.29.19-.63.38-1.26.56-1.9.13-.45.25-.92.38-1.38.16-.62.33-1.25.48-1.88s.24-1,.35-1.48l.42-1.87c.11-.52.21-1.05.31-1.58s.23-1.22.34-1.83.18-1.14.27-1.72.19-1.17.27-1.77.16-1.23.23-1.85.14-1.13.2-1.7.13-1.36.18-2c.05-.52.1-1.05.13-1.57.06-.79.09-1.58.13-2.38,0-.43,0-.86.06-1.3,0-1.23.07-2.47.07-3.72,0-24.76-8.41-46.69-21.35-60.23,0,0-18.08,34.3-18.08,61.47,0,0-10.48.2-10.68,0,0-21.65,11-45.76,19.09-65.09a21.53,21.53,0,0,0,1.42-3.43,23,23,0,0,0,1.13-7.17c0-.46,0-.91,0-1.36l0-.43-.09-.93-.06-.48c0-.29-.09-.59-.14-.88s0-.3-.08-.45c-.07-.35-.15-.7-.23-1.05l-.06-.24c-.11-.41-.23-.82-.35-1.23l-.15-.42c-.09-.27-.18-.55-.29-.81a3.66,3.66,0,0,0-.18-.46c-.1-.27-.22-.53-.34-.8l-.17-.38c-.18-.38-.36-.75-.56-1.11h0A23.33,23.33,0,0,0,108,10.27a24,24,0,0,0-3.08.21h-.08c-.67.09-1.34.21-2,.36l-.12,0q-1,.22-2,.54l-.07,0a23.26,23.26,0,0,0-5.54,2.68l0,0c-.55.37-1.08.75-1.59,1.16l-.12.09c-.49.4-1,.82-1.44,1.25l-.12.12q-.69.66-1.32,1.38a1.14,1.14,0,0,0-.11.11c-.42.49-.83,1-1.22,1.51a.21.21,0,0,1,0,.06,23.12,23.12,0,0,0-2.07,3.41l-.07.12c-.27.57-.53,1.15-.76,1.74l-.09.23c-.22.58-.41,1.16-.59,1.76,0,.09,0,.19-.08.28-.16.6-.3,1.2-.42,1.82a2.56,2.56,0,0,0,0,.27c-.12.63-.21,1.27-.27,1.91a1.41,1.41,0,0,0,0,.2c-.06.68-.1,1.37-.1,2.06a23,23,0,0,0,1.13,7.17c-17.5,12-29.6,37.58-29.6,67.28,0,1.44,0,2.88.09,4.3,0,.44,0,.88.07,1.32,0,1,.11,2,.19,3,0,.49.09,1,.13,1.47.09.95.19,1.89.31,2.83.05.45.11.91.17,1.36.14,1.07.31,2.14.48,3.2,0,.28.09.58.14.86.24,1.37.51,2.72.8,4l.12.53c.26,1.14.53,2.26.82,3.36.1.38.21.76.31,1.14.25.9.51,1.8.78,2.69l.39,1.22c.28.87.57,1.73.88,2.58.09.26.17.53.26.78l.19.49c.1.28.21.55.31.82l.24.63v-.06a79.89,79.89,0,0,0,7,13.8H54a36,36,0,0,0-35.44,29.7c-.11.56-.2,1.13-.27,1.72-.06.42-.11.84-.14,1.28a3.57,3.57,0,0,0,0,.47c0,.32-.05.65-.06,1s0,.51,0,.78,0,.71,0,1.07H198v0Z" transform="translate(-15 -7.27)" fill="#231f20" stroke="#fff" stroke-miterlimit="10" stroke-width="6"/><path d="M159.81,108.07c0,41.12-23.19,74.46-51.81,74.46s-51.81-33.34-51.81-74.46c0-29.7,12.1-55.33,29.6-67.28a23,23,0,0,1-1.13-7.17,23.34,23.34,0,1,1,46.68,0,23,23,0,0,1-1.13,7.17c-.46,1.12-.93,2.27-1.42,3.43-8,19.33-19.09,43.44-19.09,65.09.2.2,10.68,0,10.68,0,0-27.17,18.08-61.47,18.08-61.47C151.4,61.38,159.81,83.31,159.81,108.07Z" transform="translate(-15 -7.27)" fill="#1d787f"/><path d="M198,194.4H18l.56-6.3c4.38-22.79,34.56-22.79,89.44-22.79s85.06,0,89.44,22.79c.11.56.2,1.13.27,1.72.06.43.1.85.14,1.28a3.57,3.57,0,0,1,0,.47c0,.32.05.65.06,1s0,.52,0,.78S198,194,198,194.4Z" transform="translate(-15 -7.27)" fill="#1d787f"/><path d="M18.29,189.82c.07-.59.16-1.16.27-1.72L18,194.4c0-.36,0-.72,0-1.07s0-.52,0-.78,0-.66.06-1a3.57,3.57,0,0,1,0-.47C18.18,190.66,18.23,190.24,18.29,189.82Z" transform="translate(-15 -7.27)" fill="#bde5ed"/><path d="M197.44,188.1c-4.38-22.79-34.56-22.79-89.44-22.79s-85.06,0-89.44,22.79A36,36,0,0,1,54,158.4H162A36,36,0,0,1,197.44,188.1Z" transform="translate(-15 -7.27)" fill="#2bafb2"/><path d="M81.64,119.49c-.2.23-.42.45-.64.67" transform="translate(-15 -7.27)" fill="none"/><path d="M198,194.4c0-.36,0-.72,0-1.07s0-.52,0-.78,0-.66-.06-1a3.57,3.57,0,0,0,0-.47c0-.44-.08-.86-.14-1.28-.07-.59-.16-1.16-.27-1.72" transform="translate(-15 -7.27)" fill="#93d5d7"/><path d="M18.56,188.1,18,194.4c0-.36,0-.72,0-1.07s0-.52,0-.78,0-.66.06-1a3.57,3.57,0,0,1,0-.47c0-.44.08-.86.14-1.28C18.36,189.23,18.45,188.66,18.56,188.1Z" transform="translate(-15 -7.27)" fill="#93d5d7"/><path d="M40.32,113.9a1.3,1.3,0,0,1-.33-.07" transform="translate(-15 -7.27)" fill="none"/><path d="M130.21,40.79a21.53,21.53,0,0,1-1.42,3.43C129.28,43.06,129.75,41.91,130.21,40.79Z" transform="translate(-15 -7.27)" fill="#bde5ed"/><path d="M131.34,33.62a23,23,0,0,1-1.13,7.17c-.46,1.12-.93,2.27-1.42,3.43-8,19.33-19.09,43.44-19.09,65.09,0,0-1.84-30.73,8.71-53.15,9.41-20,12-29,10.16-33.58A23.2,23.2,0,0,1,131.34,33.62Z" transform="translate(-15 -7.27)" fill="#124344"/><path d="M159.81,108.07c0,19.4-5.17,37.07-13.63,50.33h-16s38.33-63.24,8.25-110.56C151.4,61.38,159.81,83.31,159.81,108.07Z" transform="translate(-15 -7.27)" fill="#124344"/><path d="M109,10.32c-2.15.13-13,1.16-17.47,9.45-5,9.23-4.26,21.62-4.26,21.62S67.65,60.08,63.09,88c-4.65,28.48-.28,56.51-.22,56.65l-.74-1.94a101.14,101.14,0,0,1-5.94-34.65c0-29.7,12.1-55.33,29.6-67.28a23,23,0,0,1-1.13-7.17,23.35,23.35,0,0,1,20.23-23.14Z" transform="translate(-15 -7.27)" fill="#2bafb2"/></svg>