<svg xmlns="http://www.w3.org/2000/svg" viewBox="0 0 186 195.06"><path d="M198,193.33q0-.39,0-.78c0-.33,0-.66-.06-1a3.57,3.57,0,0,0,0-.47c0-.43-.08-.85-.14-1.28-.07-.59-.16-1.16-.27-1.72A36,36,0,0,0,162,158.4h-7.92L174,116.54c1.92-3.67,2.88-6.06,2.88-6.06H114.76l6.59-30,40-12.74L120.83,58,108,13.24,95.17,58,54.65,67.7l40,12.74,6.59,30H39.13L61.92,158.4H54a36,36,0,0,0-35.44,29.7c-.11.56-.2,1.13-.27,1.72-.06.42-.11.84-.14,1.28a3.57,3.57,0,0,0,0,.47c0,.32-.05.65-.06,1s0,.51,0,.78,0,.71,0,1.07H198C198,194,198,193.68,198,193.33Z" transform="translate(-15 -2.34)" fill="#231f20" stroke="#fff" stroke-miterlimit="10" stroke-width="6"/><path d="M128.79,44.22a21.53,21.53,0,0,0,1.42-3.43C129.75,41.91,129.28,43.06,128.79,44.22Z" transform="translate(-15 -2.34)" fill="#231f20" stroke="#fff" stroke-miterlimit="10" stroke-width="6"/><path d="M198,194.4H18l.56-6.3c4.38-22.79,34.56-22.79,89.44-22.79s85.06,0,89.44,22.79c.11.56.2,1.13.27,1.72.06.43.1.85.14,1.28a3.57,3.57,0,0,1,0,.47c0,.32.05.65.06,1s0,.52,0,.78S198,194,198,194.4Z" transform="translate(-15 -2.34)" fill="#1d787f"/><path d="M18.29,189.82c.07-.59.16-1.16.27-1.72L18,194.4c0-.36,0-.72,0-1.07s0-.52,0-.78,0-.66.06-1a3.57,3.57,0,0,1,0-.47C18.18,190.66,18.23,190.24,18.29,189.82Z" transform="translate(-15 -2.34)" fill="#bde5ed"/><path d="M197.44,188.1c-4.38-22.79-34.56-22.79-89.44-22.79s-85.06,0-89.44,22.79A36,36,0,0,1,54,158.4H162A36,36,0,0,1,197.44,188.1Z" transform="translate(-15 -2.34)" fill="#2bafb2"/><path d="M81.64,119.49c-.2.23-.42.45-.64.67" transform="translate(-15 -2.34)" fill="none"/><path d="M198,194.4c0-.36,0-.72,0-1.07s0-.52,0-.78,0-.66-.06-1a3.57,3.57,0,0,0,0-.47c0-.44-.08-.86-.14-1.28-.07-.59-.16-1.16-.27-1.72" transform="translate(-15 -2.34)" fill="#93d5d7"/><path d="M18.56,188.1,18,194.4c0-.36,0-.72,0-1.07s0-.52,0-.78,0-.66.06-1a3.57,3.57,0,0,1,0-.47c0-.44.08-.86.14-1.28C18.36,189.23,18.45,188.66,18.56,188.1Z" transform="translate(-15 -2.34)" fill="#93d5d7"/><path d="M40.32,113.9a1.3,1.3,0,0,1-.33-.07" transform="translate(-15 -2.34)" fill="none"/><path d="M130.21,40.79a21.53,21.53,0,0,1-1.42,3.43C129.28,43.06,129.75,41.91,130.21,40.79Z" transform="translate(-15 -2.34)" fill="#bde5ed"/><path d="M47.46,76.74" transform="translate(-15 -2.34)" fill="#2bafb2"/><polygon points="161.87 108.14 139.08 156.06 46.92 156.06 24.13 108.14 86.24 108.14 79.65 78.1 39.65 65.36 80.17 55.7 93 10.9 105.83 55.7 146.35 65.36 106.35 78.1 99.76 108.14 161.87 108.14" fill="#bde5ed"/><polygon points="161.87 108.14 139.08 156.06 46.92 156.06 24.13 108.14 86.24 108.14 79.65 78.1 39.65 65.36 80.17 55.7 93 10.9 105.83 55.7 146.35 65.36 106.35 78.1 99.76 108.14 161.87 108.14" fill="#1d787f"/><path d="M61.92,158.4s68.29.58,85-10.19c20-12.9,30-37.73,30-37.73L154.08,158.4Z" transform="translate(-15 -2.34)" fill="#124344"/><polygon points="93 108.14 93 10.9 105.83 55.7 108.81 66.54 146.35 65.36 106.35 78.1 99.76 108.14 93 108.14" fill="#124344"/><polygon points="39.65 65.36 85.21 60.81 93 10.9 80.17 55.7 39.65 65.36" fill="#2bafb2"/><polygon points="40.89 143.37 32.46 115.27 86.24 108.14 24.13 108.14 40.89 143.37" fill="#2bafb2"/></svg>