<svg xmlns="http://www.w3.org/2000/svg" viewBox="0 0 186 186.84"><path d="M198,193.33q0-.39,0-.78c0-.33,0-.66-.06-1a3.57,3.57,0,0,0,0-.47c0-.43-.08-.85-.14-1.28-.07-.59-.16-1.16-.27-1.72A36,36,0,0,0,162,158.4s2.54-43.89-20-82.93l-.21-.37c-11.65-20.64-27.58-35.28-45.63-40.61h0c-.27-.49-8.9-16.26-11.08-18.3a11.62,11.62,0,0,0-1.71-1.33,6.57,6.57,0,0,0-2.38-1S72.29,32.33,66.77,34.21l-.09,0-.23.06-.5.15c-5.06,1.95-6.21,15-7.88,23.53-1.72,8.83-30,32.2-32.93,38.17a2.89,2.89,0,0,0-.08,3.1h0a8.4,8.4,0,0,0,1.08,2.07c3.18,4.65,11.09,9.35,14.18,10a2.23,2.23,0,0,0,.79.1l.54-.07a8.8,8.8,0,0,0,4.17-2.35l.55-.51c1.19-1.07,2.51-2.42,4.11-4,2.4-2.39,7-1.6,11.65-3.22h0a39.39,39.39,0,0,0,4.4-1.11A32.73,32.73,0,0,0,81,91.08c3.94,5.47,5,9.72,5.2,11.81,0,.48.06,1,.07,1.46a19.63,19.63,0,0,1-4.63,12.93c-.2.24-.42.48-.64.71L61.91,138.23A29.29,29.29,0,0,0,54,158.4a36,36,0,0,0-35.44,29.7c-.11.56-.2,1.13-.27,1.72-.06.42-.11.84-.14,1.28a3.57,3.57,0,0,0,0,.47c0,.32-.05.65-.06,1s0,.51,0,.78,0,.71,0,1.07H198C198,194,198,193.68,198,193.33Z" transform="translate(-15 -10.56)" fill="#231f20" stroke="#fff" stroke-miterlimit="10" stroke-width="6"/><path d="M146.17,158.4H54a29.29,29.29,0,0,1,7.91-20.17L81,118c.22-.23.44-.47.64-.71a19.63,19.63,0,0,0,4.63-12.93c5.29-11.85,7.46-26.72,7.46-26.72L81,91.08a32.73,32.73,0,0,1-14.44,9.1,39.39,39.39,0,0,1-4.4,1.11s-8.15-7-10.35-4.85c-5.68,5.49-8.86,15.19-11.49,14.93-3.09-.69-11-5.39-14.18-10a8.4,8.4,0,0,1-1.08-2.07h0c-.81-4.84,32.79-24,36.15-31.73S59.13,42.23,76,37.21c6.69-2,7.43-22.36,7.43-22.36a11.62,11.62,0,0,1,1.71,1.33c2.18,2,10.81,17.81,11.08,18.3h0c18,5.33,34,20,45.63,40.61C160.21,135.35,146.17,158.4,146.17,158.4Z" transform="translate(-15 -10.56)" fill="#1d787f"/><path d="M62.16,101.29h0c-5.47,1.09-9.86,1.12-11.86,3.24-1.52,1.6-2.77,2.95-3.9,4l-.55.51a8.8,8.8,0,0,1-4.17,2.35l-.54.07a2.23,2.23,0,0,1-.79-.1c2.63.26,5.81-9.44,11.49-14.93C54,94.31,62.16,101.29,62.16,101.29Z" transform="translate(-15 -10.56)" fill="#1d787f"/><path d="M25.06,99.25a3.92,3.92,0,0,1,.08-3.1c2.95-6,31.21-29.34,32.93-38.17C59.74,49.43,60.89,36.4,66,34.45l.5-.15.23-.06.09,0C72.29,32.33,81,13.84,81,13.84a6.57,6.57,0,0,1,2.38,1S82.64,35.21,76,37.21c-16.82,5-11.38,22.57-14.74,30.31S24.25,94.41,25.06,99.25Z" transform="translate(-15 -10.56)" fill="#1d787f"/><path d="M81,91.08,93.73,77.63s-2.17,14.87-7.46,26.72c0-.49,0-1-.07-1.46A19.45,19.45,0,0,0,81,91.08Z" transform="translate(-15 -10.56)" fill="#1d787f"/><path d="M198,194.4H18c0-.36,0-.72,0-1.07s0-.52,0-.78,0-.66.06-1a3.57,3.57,0,0,1,0-.47c0-.44.08-.86.14-1.28.07-.59.16-1.16.27-1.72A36,36,0,0,1,54,158.4h92.17s14-21.81-4.36-78.83l.21.35c12.45,21,20,48.43,20,78.48a36,36,0,0,1,35.44,29.7c.11.56.2,1.13.27,1.72.06.43.1.85.14,1.28a3.57,3.57,0,0,1,0,.47c0,.32.05.65.06,1s0,.52,0,.78S198,194,198,194.4Z" transform="translate(-15 -10.56)" fill="#1d787f"/><path d="M83.38,14.85S82.64,35.21,76,37.21c-16.82,5-11.38,22.57-14.74,30.31s-37,26.89-36.15,31.73a2.89,2.89,0,0,1,.08-3.1c2.95-6,31.21-29.34,32.93-38.17C59.74,49.43,60.89,36.4,66,34.45l.5-.15.23-.06.09,0C72.29,32.33,81,13.84,81,13.84A6.57,6.57,0,0,1,83.38,14.85Z" transform="translate(-15 -10.56)" fill="#2bafb2"/><path d="M197.44,188.1c-4.38-22.79-34.56-22.79-89.44-22.79s-85.06,0-89.44,22.79A36,36,0,0,1,54,158.4H162A36,36,0,0,1,197.44,188.1Z" transform="translate(-15 -10.56)" fill="#2bafb2"/><path d="M86.27,104.35a8.43,8.43,0,0,0-.07-1.46C86,100.8,84.94,96.55,81,91.08L93.73,77.63S91.56,92.5,86.27,104.35Z" transform="translate(-15 -10.56)" fill="#124344"/><path d="M198,194.4c0-.36,0-.72,0-1.07s0-.52,0-.78,0-.66-.06-1a3.57,3.57,0,0,0,0-.47c0-.44-.08-.86-.14-1.28-.07-.59-.16-1.16-.27-1.72" transform="translate(-15 -10.56)" fill="#93d5d7"/><path d="M18.56,188.1c-.11.56-.2,1.13-.27,1.72-.06.42-.11.84-.14,1.28a3.57,3.57,0,0,0,0,.47c0,.32-.05.65-.06,1s0,.51,0,.78,0,.71,0,1.07Z" transform="translate(-15 -10.56)" fill="#1d787f"/><path d="M62.16,101.29h0c-4.7,1.62-9.25.83-11.65,3.22-1.6,1.6-2.92,3-4.11,4l-.55.51a9.21,9.21,0,0,1-4.17,2.35l-.54.07a2.23,2.23,0,0,1-.79-.1c2.63.26,5.81-9.44,11.49-14.93C54,94.31,62.16,101.29,62.16,101.29Z" transform="translate(-15 -10.56)" fill="#124344"/><path d="M40.32,111.37a1.3,1.3,0,0,1-.33-.07" transform="translate(-15 -10.56)" fill="none"/><path d="M162,158.4H146.17s14-23.05-4.36-83.3l.21.37C164.54,114.51,162,158.4,162,158.4Z" transform="translate(-15 -10.56)" fill="#124344"/></svg>