<svg xmlns="http://www.w3.org/2000/svg" viewBox="0 0 186 181.03"><path d="M198,194.4c0-.36,0-.72,0-1.07s0-.52,0-.78,0-.66-.06-1a3.57,3.57,0,0,0,0-.47c0-.44-.08-.86-.14-1.28-.07-.59-.16-1.16-.27-1.72v0A36,36,0,0,0,162,158.4H147.42v-.16c0-.06,0-.12,0-.2-.27-4.83-2.9-56.67,6.35-71,2.65-4.12,16.33-9.55,18-10.21l.17-.07,7.46-43.92L153,26.89,142.67,51.81,128,51.49l-.87-4.22-5.78-27.9H98.1L92,51.48l-15.22.33L66.45,26.89,40,32.82l7.47,43.92,0,0a99,99,0,0,1,13.61,6.48l0,0,.64.4.07,0,.56.37.12.08.49.35.14.1.43.32.16.13.36.29.18.17.29.26a1.7,1.7,0,0,1,.19.19,2.5,2.5,0,0,1,.23.23,2.29,2.29,0,0,1,.21.23c.05.06.11.12.15.18s.21.28.3.41C75.37,102.08,72,158.4,72,158.4H54a36,36,0,0,0-35.44,29.7c-.11.56-.2,1.13-.27,1.72-.06.42-.11.84-.14,1.28a3.57,3.57,0,0,0,0,.47c0,.32-.05.65-.06,1s0,.51,0,.78,0,.71,0,1.07H198v0Z" transform="translate(-15 -16.37)" fill="none" stroke="#fff" stroke-miterlimit="10" stroke-width="6"/><path d="M198,194.4H18l.56-6.3c4.38-22.79,34.56-22.79,89.44-22.79s85.06,0,89.44,22.79c.11.56.2,1.13.27,1.72.06.43.1.85.14,1.28a3.57,3.57,0,0,1,0,.47c0,.32.05.65.06,1s0,.52,0,.78S198,194,198,194.4Z" transform="translate(-15 -16.37)" fill="#1d787f"/><path d="M18.29,189.82c.07-.59.16-1.16.27-1.72L18,194.4c0-.36,0-.72,0-1.07s0-.52,0-.78,0-.66.06-1a3.57,3.57,0,0,1,0-.47C18.18,190.66,18.23,190.24,18.29,189.82Z" transform="translate(-15 -16.37)" fill="#bde5ed"/><path d="M197.44,188.1c-4.38-22.79-34.56-22.79-89.44-22.79s-85.06,0-89.44,22.79A36,36,0,0,1,54,158.4H162A36,36,0,0,1,197.44,188.1Z" transform="translate(-15 -16.37)" fill="#2bafb2"/><path d="M81.64,119.49c-.2.23-.42.45-.64.67" transform="translate(-15 -16.37)" fill="none"/><path d="M198,194.4c0-.36,0-.72,0-1.07s0-.52,0-.78,0-.66-.06-1a3.57,3.57,0,0,0,0-.47c0-.44-.08-.86-.14-1.28-.07-.59-.16-1.16-.27-1.72" transform="translate(-15 -16.37)" fill="#93d5d7"/><path d="M18.56,188.1,18,194.4c0-.36,0-.72,0-1.07s0-.52,0-.78,0-.66.06-1a3.57,3.57,0,0,1,0-.47c0-.44.08-.86.14-1.28C18.36,189.23,18.45,188.66,18.56,188.1Z" transform="translate(-15 -16.37)" fill="#93d5d7"/><path d="M179.41,32.82,172,76.74S156.58,82.63,153.75,87c-9.71,15.06-6.33,71.38-6.33,71.38H72S75.37,102.08,65.66,87c-2.83-4.39-18.2-10.28-18.2-10.28L40,32.82l26.46-5.93L76.74,51.81,92,51.48,98.1,19.37h23.21L128,51.49l14.71.32L153,26.89Z" transform="translate(-15 -16.37)" fill="#1d787f"/><polygon points="164.41 16.45 141.85 60.37 32.46 60.37 24.99 16.45 51.45 10.52 61.74 35.44 76.96 35.11 83.1 3 106.31 3 112.96 35.12 127.67 35.44 137.96 10.52 164.41 16.45" fill="#1d787f"/><path d="M47.46,76.74" transform="translate(-15 -16.37)" fill="#2bafb2"/><path d="M179.41,32.82,172,76.74S156.58,82.63,153.75,87c-9.71,15.06-6.33,71.38-6.33,71.38H134.89c0-16.78-10.16-69.51-28.29-69.51S65.66,87,65.66,87c-2.74-4.25-17.25-9.91-18.16-10.26l0,0H156.85Z" transform="translate(-15 -16.37)" fill="#124344"/><polygon points="29.63 43.73 24.99 16.45 51.45 10.52 32.46 21 29.63 43.73" fill="#2bafb2"/><polygon points="76.96 35.11 83.1 3 106.31 3 87.85 8.94 76.96 35.11" fill="#2bafb2"/><polygon points="127.67 35.44 137.96 10.52 164.41 16.45 140.66 17.25 127.67 35.44" fill="#2bafb2"/></svg>