<svg xmlns="http://www.w3.org/2000/svg" viewBox="0 0 186.56 181.03"><path d="M198,194.4l-.56-6.3c.11.56.2,1.13.27,1.72.06.42.11.84.14,1.28a3.57,3.57,0,0,1,0,.47c0,.32.05.65.06,1s0,.51,0,.78S198,194,198,194.4Z" transform="translate(-14.72 -16.37)" fill="#231f20" stroke="#231f20" stroke-miterlimit="10" stroke-width="6"/><path d="M18.56,188.1,18,194.4c0-.36,0-.72,0-1.07s0-.52,0-.78,0-.66.06-1a3.57,3.57,0,0,1,0-.47c0-.44.08-.86.14-1.28C18.36,189.23,18.45,188.66,18.56,188.1Z" transform="translate(-14.72 -16.37)" fill="#bde5ed"/><path d="M81.64,119.49c-.2.23-.42.45-.64.67" transform="translate(-14.72 -16.37)" fill="none"/><path d="M198,194.4l-.56-6.3c.11.56.2,1.13.27,1.72.06.42.11.84.14,1.28a3.57,3.57,0,0,1,0,.47c0,.32.05.65.06,1s0,.51,0,.78S198,194,198,194.4Z" transform="translate(-14.72 -16.37)" fill="#231f20" stroke="#231f20" stroke-miterlimit="10" stroke-width="6"/><path d="M18.56,188.1,18,194.4c0-.36,0-.72,0-1.07s0-.52,0-.78,0-.66.06-1a3.57,3.57,0,0,1,0-.47c0-.44.08-.86.14-1.28C18.36,189.23,18.45,188.66,18.56,188.1Z" transform="translate(-14.72 -16.37)" fill="#93d5d7"/><path d="M47.46,76.74Z" transform="translate(-14.72 -16.37)" fill="#2bafb2"/><path d="M48.29,77.07l.84.34Z" transform="translate(-14.72 -16.37)" fill="#75aaaa"/><path d="M50.19,77.85c.42.17.88.37,1.37.59Z" transform="translate(-14.72 -16.37)" fill="#75aaaa"/><path d="M52.23,78.73c.67.29,1.37.61,2.1,1Z" transform="translate(-14.72 -16.37)" fill="#75aaaa"/><path d="M198,194.4H18l.56-6.3A36,36,0,0,1,54,158.4H72S75.37,102.08,65.66,87a5.13,5.13,0,0,0-.65-.81,4,4,0,0,0-.41-.41,21.38,21.38,0,0,0-3.48-2.55l-.7-.42c-.57-.34-1.16-.66-1.76-1s-1.33-.7-2-1l-.77-.38c-.51-.26-1-.5-1.51-.72l-.05,0c-.73-.34-1.43-.66-2.1-1l-.67-.29c-.49-.22-1-.42-1.37-.59l-.42-.18-.4-.16-.24-.1-.84-.34-.46-.18-.2-.08-.13,0,0,0L44.63,60.1,40,32.82l26.46-5.93L76.74,51.81,92,51.48,98.1,19.37h23.21L128,51.49l14.71.32L153,26.89l26.45,5.93L172,76.74S156.58,82.63,153.75,87c-9.71,15.06-6.33,71.38-6.33,71.38H162a36,36,0,0,1,35.44,29.7Z" transform="translate(-14.72 -16.37)" fill="#231f20" stroke="#231f20" stroke-miterlimit="10" stroke-width="6"/><path d="M198,194.4H18l.56-6.3c4.38-22.79,34.56-22.79,89.44-22.79s85.06,0,89.44,22.79c.11.56.2,1.13.27,1.72.06.43.1.85.14,1.28a3.57,3.57,0,0,1,0,.47c0,.32.05.65.06,1s0,.52,0,.78S198,194,198,194.4Z" transform="translate(-14.72 -16.37)" fill="#bde5ed"/><path d="M18.29,189.82c.07-.59.16-1.16.27-1.72L18,194.4c0-.36,0-.72,0-1.07s0-.52,0-.78,0-.66.06-1a3.57,3.57,0,0,1,0-.47C18.18,190.66,18.23,190.24,18.29,189.82Z" transform="translate(-14.72 -16.37)" fill="#bde5ed"/><path d="M197.44,188.1c-4.38-22.79-34.56-22.79-89.44-22.79s-85.06,0-89.44,22.79A36,36,0,0,1,54,158.4H162A36,36,0,0,1,197.44,188.1Z" transform="translate(-14.72 -16.37)" fill="#e5f5f9"/><path d="M81.64,119.49c-.2.23-.42.45-.64.67" transform="translate(-14.72 -16.37)" fill="none"/><path d="M18.56,188.1,18,194.4c0-.36,0-.72,0-1.07s0-.52,0-.78,0-.66.06-1a3.57,3.57,0,0,1,0-.47c0-.44.08-.86.14-1.28C18.36,189.23,18.45,188.66,18.56,188.1Z" transform="translate(-14.72 -16.37)" fill="#93d5d7"/><path d="M179.41,32.82,172,76.74S156.58,82.63,153.75,87c-9.71,15.06-6.33,71.38-6.33,71.38H72S75.37,102.08,65.66,87c-2.83-4.39-18.2-10.28-18.2-10.28L40,32.82l26.46-5.93L76.74,51.81,92,51.48,98.1,19.37h23.21L128,51.49l14.71.32L153,26.89Z" transform="translate(-14.72 -16.37)" fill="#bde5ed"/><polygon points="164.69 16.45 142.13 60.37 32.74 60.37 25.27 16.45 51.73 10.52 62.02 35.44 77.24 35.11 83.38 3 106.59 3 113.24 35.12 127.95 35.44 138.24 10.52 164.69 16.45" fill="#bde5ed"/><path d="M47.46,76.74" transform="translate(-14.72 -16.37)" fill="#2bafb2"/><path d="M179.41,32.82,172,76.74S156.58,82.63,153.75,87c-9.71,15.06-6.33,71.38-6.33,71.38H134.89c0-16.78-10.16-69.51-28.29-69.51S65.66,87,65.66,87c-2.74-4.25-17.25-9.91-18.16-10.26l0,0H156.85Z" transform="translate(-14.72 -16.37)" fill="#75aaaa"/><polygon points="29.91 43.73 25.27 16.45 51.73 10.52 32.74 21 29.91 43.73" fill="#e5f5f9"/><polygon points="77.24 35.11 83.38 3 106.59 3 88.13 8.94 77.24 35.11" fill="#e5f5f9"/><polygon points="127.95 35.44 138.24 10.52 164.69 16.45 140.94 17.25 127.95 35.44" fill="#e5f5f9"/></svg>