<svg xmlns="http://www.w3.org/2000/svg" viewBox="0 0 186 190.14"><path d="M45.82,107.92a9.34,9.34,0,0,1-3.64,2.27A10,10,0,0,0,45.82,107.92Z" transform="translate(-15 -7.26)" fill="#bde5ed" stroke="#231f20" stroke-miterlimit="10" stroke-width="6"/><path d="M86.27,103.11c0-.49,0-1-.07-1.49A8.79,8.79,0,0,1,86.27,103.11Z" transform="translate(-15 -7.26)" fill="#bde5ed" stroke="#231f20" stroke-miterlimit="10" stroke-width="6"/><path d="M198,193.33q0-.39,0-.78c0-.33,0-.66-.06-1a3.57,3.57,0,0,0,0-.47c0-.43-.08-.85-.14-1.28-.07-.59-.16-1.16-.27-1.72A36,36,0,0,0,162,158.4s2.54-44.89-20-84.83l-.21-.37c-11.65-21.11-27.58-36.08-45.63-41.53h0c-.27-.51-8.9-16.64-11.08-18.72a10.75,10.75,0,0,0-1.71-1.36,6.6,6.6,0,0,0-2.38-1S72.29,29.45,66.77,31.38l-.09,0-.23.06-.5.16c-5.06,2-6.21,15.31-7.88,24.06-1.72,9-30,32.93-32.93,39a4.09,4.09,0,0,0-.08,3.17v0A8.8,8.8,0,0,0,26.14,100c3.18,4.76,11.09,9.56,14.18,10.27a2.23,2.23,0,0,0,.79.1,5,5,0,0,0,.54-.08l.53-.13a10,10,0,0,0,3.64-2.27l.55-.51c.14-.13.29-.27.43-.42,1-1,2.14-2.25,3.47-3.68,2-2.16,6.39-2.2,11.86-3.31h0a42,42,0,0,0,4.4-1.13A32.76,32.76,0,0,0,81,89.55a20.07,20.07,0,0,1,5.2,12.07,8.79,8.79,0,0,1,.07,1.49,20.35,20.35,0,0,1-4.63,13.23c-.2.25-.42.49-.64.73l-19.09,20.7A30.32,30.32,0,0,0,54,158.4a36,36,0,0,0-35.44,29.7c-.11.56-.2,1.13-.27,1.72-.06.42-.11.84-.14,1.28a3.57,3.57,0,0,0,0,.47c0,.32-.05.65-.06,1s0,.51,0,.78,0,.71,0,1.07H198C198,194,198,193.68,198,193.33Zm-46.7-62.59c.15,18.22-4.46,26.56-5.05,27.56C146.78,157.3,151.08,148.93,151.28,130.74Z" transform="translate(-15 -7.26)" fill="#bde5ed" stroke="#231f20" stroke-miterlimit="10" stroke-width="6"/><path d="M25.06,97.9a3,3,0,0,1,.08-3.17A4.09,4.09,0,0,0,25.06,97.9Z" transform="translate(-15 -7.26)" fill="#e5f5f9" stroke="#231f20" stroke-miterlimit="10" stroke-width="6"/><path d="M86.2,101.62C86,99.48,84.94,95.14,81,89.55A20.07,20.07,0,0,1,86.2,101.62Z" transform="translate(-15 -7.26)" fill="#75aaaa" stroke="#231f20" stroke-miterlimit="10" stroke-width="6"/><path d="M62.13,100c-4.7,1.65-9.25.84-11.65,3.29-1.41,1.44-2.6,2.69-3.68,3.7,1-1,2.14-2.25,3.47-3.68C52.27,101.15,56.66,101.11,62.13,100Z" transform="translate(-15 -7.26)" fill="#75aaaa" stroke="#231f20" stroke-miterlimit="10" stroke-width="6"/><path d="M40.32,110.3a1,1,0,0,1-.33-.08" transform="translate(-15 -7.26)" fill="none" stroke="#231f20" stroke-miterlimit="10" stroke-width="6"/><path d="M146.23,158.3c.55-1,4.85-9.37,5.05-27.56C151.43,149,146.82,157.3,146.23,158.3Z" transform="translate(-15 -7.26)" fill="#75aaaa" stroke="#231f20" stroke-miterlimit="10" stroke-width="6"/><path d="M146.17,158.4H54a30.32,30.32,0,0,1,7.91-20.63L81,117.07c.22-.24.44-.48.64-.73a20.35,20.35,0,0,0,4.63-13.23C91.56,91,93.73,75.79,93.73,75.79L81,89.55a32.76,32.76,0,0,1-14.44,9.31,42,42,0,0,1-4.4,1.13S54,92.85,51.81,95c-5.68,5.61-8.86,15.53-11.49,15.27-3.09-.71-11-5.51-14.18-10.27a8.8,8.8,0,0,1-1.08-2.11v0c-.81-5,32.79-24.55,36.15-32.45S59.13,39.58,76,34.45c6.69-2.05,7.43-22.87,7.43-22.87a10.75,10.75,0,0,1,1.71,1.36C87.27,15,95.9,31.15,96.17,31.66h0c18,5.45,34,20.42,45.63,41.53C160.21,134.83,146.17,158.4,146.17,158.4Z" transform="translate(-15 -7.26)" fill="#bde5ed"/><path d="M62.16,100h0c-5.47,1.11-9.86,1.15-11.86,3.31-1.52,1.64-2.77,3-3.9,4.1l-.55.51a8.68,8.68,0,0,1-4.17,2.4,5,5,0,0,1-.54.08,2.23,2.23,0,0,1-.79-.1c2.63.26,5.81-9.66,11.49-15.27C54,92.85,62.16,100,62.16,100Z" transform="translate(-15 -7.26)" fill="#bde5ed"/><path d="M25.06,97.9a4.09,4.09,0,0,1,.08-3.17c2.95-6.11,31.21-30,32.93-39,1.67-8.75,2.82-22.08,7.88-24.06l.5-.16.23-.06.09,0C72.29,29.45,81,10.54,81,10.54a6.6,6.6,0,0,1,2.38,1S82.64,32.4,76,34.45c-16.82,5.13-11.38,23.08-14.74,31S24.25,93,25.06,97.9Z" transform="translate(-15 -7.26)" fill="#bde5ed"/><path d="M81,89.55,93.73,75.79S91.56,91,86.27,103.11c0-.49,0-1-.07-1.49A20.07,20.07,0,0,0,81,89.55Z" transform="translate(-15 -7.26)" fill="#bde5ed"/><path d="M198,194.4H18c0-.36,0-.72,0-1.07s0-.52,0-.78,0-.66.06-1a3.57,3.57,0,0,1,0-.47c0-.44.08-.86.14-1.28.07-.59.16-1.16.27-1.72A36,36,0,0,1,54,158.4h92.17s14-21.81-4.36-78.83l.21.35c12.45,21,20,48.43,20,78.48a36,36,0,0,1,35.44,29.7c.11.56.2,1.13.27,1.72.06.43.1.85.14,1.28a3.57,3.57,0,0,1,0,.47c0,.32.05.65.06,1s0,.52,0,.78S198,194,198,194.4Z" transform="translate(-15 -7.26)" fill="#bde5ed"/><path d="M83.38,11.58S82.64,32.4,76,34.45c-16.82,5.13-11.38,23.08-14.74,31S24.25,93,25.06,97.9a3,3,0,0,1,.08-3.17c2.95-6.11,31.21-30,32.93-39,1.67-8.75,2.82-22.08,7.88-24.06l.5-.16.23-.06.09,0C72.29,29.45,81,10.54,81,10.54A6.6,6.6,0,0,1,83.38,11.58Z" transform="translate(-15 -7.26)" fill="#e5f5f9"/><path d="M197.44,188.1c-4.38-22.79-34.56-22.79-89.44-22.79s-85.06,0-89.44,22.79A36,36,0,0,1,54,158.4H162A36,36,0,0,1,197.44,188.1Z" transform="translate(-15 -7.26)" fill="#e5f5f9"/><path d="M86.27,103.11a8.79,8.79,0,0,0-.07-1.49C86,99.48,84.94,95.14,81,89.55L93.73,75.79S91.56,91,86.27,103.11Z" transform="translate(-15 -7.26)" fill="#75aaaa"/><path d="M198,194.4c0-.36,0-.72,0-1.07s0-.52,0-.78,0-.66-.06-1a3.57,3.57,0,0,0,0-.47c0-.44-.08-.86-.14-1.28-.07-.59-.16-1.16-.27-1.72" transform="translate(-15 -7.26)" fill="#93d5d7"/><path d="M18.56,188.1c-.11.56-.2,1.13-.27,1.72-.06.42-.11.84-.14,1.28a3.57,3.57,0,0,0,0,.47c0,.32-.05.65-.06,1s0,.51,0,.78,0,.71,0,1.07Z" transform="translate(-15 -7.26)" fill="#93d5d7"/><path d="M62.16,100h0c-4.7,1.65-9.25.84-11.65,3.29-1.6,1.64-2.92,3-4.11,4.12l-.55.51a9.08,9.08,0,0,1-4.17,2.4,5,5,0,0,1-.54.08,2.23,2.23,0,0,1-.79-.1c2.63.26,5.81-9.66,11.49-15.27C54,92.85,62.16,100,62.16,100Z" transform="translate(-15 -7.26)" fill="#75aaaa"/><path d="M40.32,110.3a1,1,0,0,1-.33-.08" transform="translate(-15 -7.26)" fill="none"/><path d="M162,158.4H146.17s14-23.57-4.36-85.2l.21.37C164.54,113.51,162,158.4,162,158.4Z" transform="translate(-15 -7.26)" fill="#75aaaa"/></svg>