<svg xmlns="http://www.w3.org/2000/svg" viewBox="0 0 202.88 186.08"><path d="M197.44,71.3c5,0,9-4.83,9-10.78,0-.22,0-.44,0-.66a3.25,3.25,0,0,0,0-.44c0-.16,0-.32,0-.48a11.55,11.55,0,0,0-.21-1.2,9.05,9.05,0,0,0-.25-.93,6.45,6.45,0,0,0-.21-.62,4.87,4.87,0,0,0-.21-.53v0a11.11,11.11,0,0,0-.72-1.42,6.49,6.49,0,0,0-.36-.55l0,0q-.19-.28-.42-.57c-.15-.19-.31-.37-.47-.55s-.3-.32-.46-.46a8.53,8.53,0,0,0-1-.82l-.17-.12a7.73,7.73,0,0,0-.88-.51l-.41-.19a3,3,0,0,0-.41-.17,6.28,6.28,0,0,0-.87-.27l-.25-.06-.3,0a5.82,5.82,0,0,0-.73-.09l-.53,0c-5,0-9,4.83-9,10.79a12.28,12.28,0,0,0,1.45,5.86L159.47,90l32.06-22.11s-2.81-7.31-.72-11.39c-2,4.1,1.57,11.63,1.57,11.63L159.47,90l-3.71-45.65c4.48-.62,8-5.18,8-10.71q0-.39,0-.78c0-.11,0-.21,0-.32s0-.44-.07-.65-.08-.57-.14-.84a6.23,6.23,0,0,0-.15-.62,3.47,3.47,0,0,0-.16-.55,7.55,7.55,0,0,0-.29-.84.58.58,0,0,0-.05-.14l-.18-.4a10.88,10.88,0,0,0-.64-1.22,9.93,9.93,0,0,0-1.05-1.43,3.33,3.33,0,0,0-.36-.39l-.31-.31A9.16,9.16,0,0,0,158.86,24c-.16-.1-.31-.19-.47-.27a6.28,6.28,0,0,0-1-.45l-.51-.17q-.28-.09-.57-.15l-.39-.07c-.22,0-.44-.06-.66-.08l-.55,0c-5,0-9,4.83-9,10.79A11.6,11.6,0,0,0,149,41.86L124.46,80.11,111,35.26c3.48-1.5,6-5.48,6-10.15,0-.27,0-.53,0-.8s0-.62-.08-.93-.09-.54-.14-.81a6.23,6.23,0,0,0-.15-.62.09.09,0,0,0,0-.05,2,2,0,0,0-.09-.33,11.1,11.1,0,0,0-.41-1.19l-.18-.41q-.21-.46-.45-.9l-.13-.22h0a11.09,11.09,0,0,0-.65-1s0,0,0,0a10.66,10.66,0,0,0-.75-.87q-.18-.19-.36-.36a8.49,8.49,0,0,0-2-1.45,7.13,7.13,0,0,0-1.25-.51,6.31,6.31,0,0,0-.72-.18,1.55,1.55,0,0,0-.31-.06c-.22,0-.44-.06-.67-.08l-.55,0c-5,0-9,4.83-9,10.79,0,.33,0,.65,0,1a.13.13,0,0,0,0,.06,7,7,0,0,0,.08.79l.06.37c0,.19.07.38.11.57l0,.2c.05.24.12.47.19.7a.19.19,0,0,0,0,.07h0A10.85,10.85,0,0,0,100,30c.1.22.2.45.31.66l0,.1a9.92,9.92,0,0,0,.76,1.27c.15.21.3.41.46.61s.31.37.47.54a8.93,8.93,0,0,0,1.75,1.46,4.25,4.25,0,0,0,.46.27,7.14,7.14,0,0,0,.73.37L91.54,80.11,66.93,41.67a11.76,11.76,0,0,0,3-8.06,12.93,12.93,0,0,0-.28-2.67,4.05,4.05,0,0,0-.12-.5.14.14,0,0,0,0-.06,4.27,4.27,0,0,0-.13-.48c0-.17-.11-.35-.17-.51s-.16-.45-.26-.67a1.89,1.89,0,0,0-.11-.25q-.14-.3-.3-.6a2.64,2.64,0,0,0-.15-.29.24.24,0,0,0-.06-.09,5.48,5.48,0,0,0-.31-.52l-.15-.22a.36.36,0,0,0-.07-.1c-.13-.19-.27-.38-.41-.55l0-.05h0L67.32,26,67,25.62l-.33-.34a8.62,8.62,0,0,0-2.22-1.61l-.41-.19a7.4,7.4,0,0,0-1.53-.5l-.28-.05A7.71,7.71,0,0,0,61,22.82c-5,0-9,4.83-9,10.79,0,.21,0,.42,0,.63s0,.41,0,.62a12.16,12.16,0,0,0,.18,1.21c0,.19.08.39.13.58a11.76,11.76,0,0,0,.54,1.68c.11.26.22.51.34.76l.26.49c.11.2.23.39.35.58s.25.38.38.56c0,0,0,0,0,0l.41.51c.14.16.27.31.42.46s.32.33.48.48.32.28.48.41a8.33,8.33,0,0,0,2.19,1.27l.5.18.2.06c.17,0,.33.09.5.12a4,4,0,0,0,.48.08l.24,0,.54,0L58.53,90,26.22,66.16a12.29,12.29,0,0,0,1.34-5.64c0-6-4-10.79-9-10.79a6,6,0,0,0-.73,0l-.19,0a5.24,5.24,0,0,0-.53.08,7.91,7.91,0,0,0-2,.71,6.08,6.08,0,0,0-.6.34,8.59,8.59,0,0,0-.73.5q-.24.18-.48.39l-.07.06c-.16.15-.32.3-.47.46a6.77,6.77,0,0,0-.51.56c-.16.19-.31.38-.45.58a10.82,10.82,0,0,0-1.22,2.19c-.09.22-.18.43-.25.65s-.18.52-.25.79a13,13,0,0,0-.35,1.67c0,.21-.06.43-.07.65a3,3,0,0,0,0,.31c0,.26,0,.52,0,.79,0,5.95,4,10.78,9,10.78a7.63,7.63,0,0,0,3.58-.9L54,158.4a36,36,0,0,0-35.44,29.7L18,194.4H198l-.56-6.3A36,36,0,0,0,162,158.4l31.86-88A7.63,7.63,0,0,0,197.44,71.3ZM18.32,52.58a3.34,3.34,0,0,1,.8.24A3.86,3.86,0,0,0,18.32,52.58Zm.81.24a4.81,4.81,0,0,1,1.56,1.06A5,5,0,0,0,19.13,52.82Z" transform="translate(-6.56 -11.32)" fill="#fff" stroke="#231f20" stroke-miterlimit="10" stroke-width="6"/><path d="M198,194.4l-.56-6.3c.11.56.2,1.13.27,1.72.06.42.11.84.14,1.28a3.57,3.57,0,0,1,0,.47c0,.32.05.65.06,1s0,.51,0,.78S198,194,198,194.4Z" transform="translate(-6.56 -11.32)" fill="#bde5ed"/><path d="M18.56,188.1,18,194.4c0-.36,0-.72,0-1.07s0-.52,0-.78,0-.66.06-1a3.57,3.57,0,0,1,0-.47c0-.44.08-.86.14-1.28C18.36,189.23,18.45,188.66,18.56,188.1Z" transform="translate(-6.56 -11.32)" fill="#bde5ed"/><path d="M81.64,119.49c-.2.23-.42.45-.64.67" transform="translate(-6.56 -11.32)" fill="none"/><path d="M198,194.4l-.56-6.3c.11.56.2,1.13.27,1.72.06.42.11.84.14,1.28a3.57,3.57,0,0,1,0,.47c0,.32.05.65.06,1s0,.51,0,.78S198,194,198,194.4Z" transform="translate(-6.56 -11.32)" fill="#93d5d7"/><path d="M18.56,188.1,18,194.4c0-.36,0-.72,0-1.07s0-.52,0-.78,0-.66.06-1a3.57,3.57,0,0,1,0-.47c0-.44.08-.86.14-1.28C18.36,189.23,18.45,188.66,18.56,188.1Z" transform="translate(-6.56 -11.32)" fill="#93d5d7"/><path d="M40.32,113.9a1.3,1.3,0,0,1-.33-.07" transform="translate(-6.56 -11.32)" fill="none"/><path d="M47.46,60.51Z" transform="translate(-6.56 -11.32)" fill="#2bafb2"/><path d="M9.68,58.77A11.23,11.23,0,0,1,10,57.1,13,13,0,0,0,9.68,58.77Z" transform="translate(-6.56 -11.32)" fill="#bde5ed"/><path d="M18.32,52.58a3.34,3.34,0,0,1,.8.24A3.86,3.86,0,0,0,18.32,52.58Z" transform="translate(-6.56 -11.32)" fill="#bde5ed"/><path d="M19.13,52.82a4.81,4.81,0,0,1,1.56,1.06A5,5,0,0,0,19.13,52.82Z" transform="translate(-6.56 -11.32)" fill="#bde5ed"/><path d="M114.66,17.86a11.44,11.44,0,0,1,.67,1h0A11.09,11.09,0,0,0,114.66,17.86Z" transform="translate(-6.56 -11.32)" fill="#bde5ed"/><path d="M192.38,68.1,159.47,90l32.06-22.11s-2.81-7.31-.72-11.39C188.83,60.57,192.38,68.1,192.38,68.1Z" transform="translate(-6.56 -11.32)" fill="#bde5ed"/><path d="M18.32,52.58a3.34,3.34,0,0,1,.8.24A3.86,3.86,0,0,0,18.32,52.58Z" transform="translate(-6.56 -11.32)" fill="#bde5ed"/><path d="M19.13,52.82a4.81,4.81,0,0,1,1.56,1.06A5,5,0,0,0,19.13,52.82Z" transform="translate(-6.56 -11.32)" fill="#bde5ed"/><path d="M100.33,30.74a9.92,9.92,0,0,0,.76,1.27A9.48,9.48,0,0,1,100.33,30.74Z" transform="translate(-6.56 -11.32)" fill="#bde5ed"/><path d="M115.34,18.86l.12.21-.13-.22Z" transform="translate(-6.56 -11.32)" fill="#bde5ed"/><path d="M202,51.21l-.17-.12h0Z" transform="translate(-6.56 -11.32)" fill="#bde5ed"/><path d="M18.32,52.58a3.34,3.34,0,0,1,.8.24A3.86,3.86,0,0,0,18.32,52.58Z" transform="translate(-6.56 -11.32)" fill="#e5f5f9"/><path d="M20.69,53.88a5,5,0,0,0-1.56-1.06A4.81,4.81,0,0,1,20.69,53.88Z" transform="translate(-6.56 -11.32)" fill="#e5f5f9"/><path d="M67.38,26.05h0L67.32,26Z" transform="translate(-6.56 -11.32)" fill="#e5f5f9"/><path d="M198,194.4H18l.56-6.3c4.38-22.79,34.56-22.79,89.44-22.79s85.06,0,89.44,22.79c.11.56.2,1.13.27,1.72.06.43.1.85.14,1.28a3.57,3.57,0,0,1,0,.47c0,.32.05.65.06,1s0,.52,0,.78S198,194,198,194.4Z" transform="translate(-6.56 -11.32)" fill="#bde5ed"/><path d="M18.29,189.82c.07-.59.16-1.16.27-1.72L18,194.4c0-.36,0-.72,0-1.07s0-.52,0-.78,0-.66.06-1a3.57,3.57,0,0,1,0-.47C18.18,190.66,18.23,190.24,18.29,189.82Z" transform="translate(-6.56 -11.32)" fill="#bde5ed"/><path d="M197.44,188.1c-4.38-22.79-34.56-22.79-89.44-22.79s-85.06,0-89.44,22.79A36,36,0,0,1,54,158.4H162A36,36,0,0,1,197.44,188.1Z" transform="translate(-6.56 -11.32)" fill="#e5f5f9"/><path d="M81.64,119.49c-.2.23-.42.45-.64.67" transform="translate(-6.56 -11.32)" fill="none"/><path d="M198,194.4c0-.36,0-.72,0-1.07s0-.52,0-.78,0-.66-.06-1a3.57,3.57,0,0,0,0-.47c0-.44-.08-.86-.14-1.28-.07-.59-.16-1.16-.27-1.72Z" transform="translate(-6.56 -11.32)" fill="#93d5d7"/><path d="M18.56,188.1,18,194.4c0-.36,0-.72,0-1.07s0-.52,0-.78,0-.66.06-1a3.57,3.57,0,0,1,0-.47c0-.44.08-.86.14-1.28C18.36,189.23,18.45,188.66,18.56,188.1Z" transform="translate(-6.56 -11.32)" fill="#93d5d7"/><path d="M40.32,113.9a1.3,1.3,0,0,1-.33-.07" transform="translate(-6.56 -11.32)" fill="none"/><path d="M47.46,60.51Z" transform="translate(-6.56 -11.32)" fill="#2bafb2"/><path d="M206.44,60.52c0,5.95-4,10.78-9,10.78a7.63,7.63,0,0,1-3.58-.9L162,158.4H54l-31.86-88a7.63,7.63,0,0,1-3.58.9c-5,0-9-4.83-9-10.78s4-10.79,9-10.79,9,4.83,9,10.79a12.29,12.29,0,0,1-1.34,5.64L58.53,90l2.11-45.59c-4.82-.2-8.68-5-8.68-10.77s4-10.79,9-10.79,9,4.83,9,10.79a11.76,11.76,0,0,1-3,8.06L91.54,80.11,105,35.26c-3.48-1.5-6-5.48-6-10.15,0-6,4-10.79,9-10.79s9,4.83,9,10.79c0,4.67-2.48,8.65-6,10.15l13.42,44.85L149,41.86a11.6,11.6,0,0,1-3.23-8.25c0-6,4-10.79,9-10.79s9,4.83,9,10.79c0,5.53-3.48,10.09-8,10.71L159.47,90l30.42-23.59a12.28,12.28,0,0,1-1.45-5.86c0-6,4-10.79,9-10.79S206.44,54.56,206.44,60.52Z" transform="translate(-6.56 -11.32)" fill="#bde5ed"/><path d="M205.46,55.63s-.35,6.9-3,10.81-9.68,3.28-9.68,3.28L151.51,158.4H54l-31.86-88a7.63,7.63,0,0,1-3.58.9c-5,0-9-4.83-9-10.78A12.39,12.39,0,0,1,10,57.1h0a16.56,16.56,0,0,1,1.17-1.26l.39-.37a17.08,17.08,0,0,1,1.59-1.3l.61-.4a7.43,7.43,0,0,1,1-.54A1.92,1.92,0,0,1,15,53.1a4.1,4.1,0,0,1,.48-.21l.33-.11.43-.12a2.1,2.1,0,0,0,.24-.06,3.35,3.35,0,0,1,.44-.07,5.49,5.49,0,0,1,.58,0,4.38,4.38,0,0,1,3.18,1.38c4.49,4.42,3.69,14.22,3.69,14.22L58.53,90l2.11-45.59c-3.42-.14-6.35-2.58-7.77-6.05,0,0,.08-9,4.09-12.28s10.42,0,10.42,0A12,12,0,0,1,70,33.61a11.76,11.76,0,0,1-3,8.06L91.54,80.11l14.73-44.73L105,35.26a10.07,10.07,0,0,1-5.4-6.41s.78-9.63,4.47-11.43a9.91,9.91,0,0,1,11.28,1.42l0,0A12.31,12.31,0,0,1,117,25.11c0,4.67-2.48,8.65-6,10.15l13.42,44.85L151,42.33s-4.62-2.37-3.43-8.84,6.07-9.81,9.1-8.71A58.61,58.61,0,0,1,162,27.25a12.16,12.16,0,0,1,1.73,6.36c0,5.53-3.48,10.09-8,10.71L159.47,90,192.38,68.1s-4.08-8.66-1-12.47,5-5.08,8.7-4.61a9.21,9.21,0,0,0,1.8.07A10.36,10.36,0,0,1,205.46,55.63Z" transform="translate(-6.56 -11.32)" fill="#bde5ed"/><path d="M206.44,60.52c0,5.95-4,10.78-9,10.78a7.63,7.63,0,0,1-3.58-.9L162,158.4H54s87.62-.84,115.18-43.67c11.29-17.56,23.58-45,23.58-45s7,.64,9.68-3.28,3-10.81,3-10.81A12.34,12.34,0,0,1,206.44,60.52Z" transform="translate(-6.56 -11.32)" fill="#75aaaa"/><path d="M24.38,68.1s.8-9.8-3.69-14.22S10,57.1,10,57.1c1.18-4.28,4.56-7.37,8.53-7.37,5,0,9,4.83,9,10.79a12.29,12.29,0,0,1-1.34,5.64L58.53,90Z" transform="translate(-6.56 -11.32)" fill="#e5f5f9"/><path d="M67.38,26.05S61,22.82,57,26.05s-4.09,12.28-4.09,12.28A12.56,12.56,0,0,1,52,33.61c0-6,4-10.79,9-10.79A8.21,8.21,0,0,1,67,25.62Z" transform="translate(-6.56 -11.32)" fill="#e5f5f9"/><polygon points="99.71 24.06 84.98 68.79 98.4 23.94 99.71 24.06" fill="#e5f5f9"/><path d="M115.31,18.84A9.91,9.91,0,0,0,104,17.42c-3.69,1.8-4.47,11.43-4.47,11.43A12.67,12.67,0,0,1,99,25.11c0-6,4-10.79,9-10.79A8.6,8.6,0,0,1,115.31,18.84Z" transform="translate(-6.56 -11.32)" fill="#e5f5f9"/><path d="M162,27.25a58.61,58.61,0,0,0-5.34-2.47c-3-1.1-7.91,2.22-9.1,8.71S151,42.33,151,42.33L124.46,80.11,149,41.86a11.6,11.6,0,0,1-3.23-8.25c0-6,4-10.79,9-10.79A8.63,8.63,0,0,1,162,27.25Z" transform="translate(-6.56 -11.32)" fill="#e5f5f9"/><path d="M201.83,51.09A9.21,9.21,0,0,1,200,51c-3.69-.47-5.67.79-8.7,4.61s1.52,12.21,1.52,12.21L159.47,90l30.42-23.59a12.28,12.28,0,0,1-1.45-5.86c0-6,4-10.79,9-10.79A7.91,7.91,0,0,1,201.83,51.09Z" transform="translate(-6.56 -11.32)" fill="#e5f5f9"/></svg>