<svg xmlns="http://www.w3.org/2000/svg" viewBox="0 0 186.56 195.06"><path d="M198,194.4H18l.56-6.3A36,36,0,0,1,54,158.4h7.92l-6-12.68L39.13,110.48h62.11l-6.59-30-40-12.74L95.17,58,108,13.24,120.83,58l40.52,9.66-40,12.74-6.59,30h62.11v0l-.06.14L174,116.53a.31.31,0,0,1-.05.1L154.08,158.4H162a36,36,0,0,1,35.44,29.7Z" transform="translate(-14.72 -2.34)" fill="#fff" stroke="#231f20" stroke-miterlimit="10" stroke-width="6"/><path d="M198,194.4l-.56-6.3c.11.56.2,1.13.27,1.72.06.42.11.84.14,1.28a3.57,3.57,0,0,1,0,.47c0,.32.05.65.06,1s0,.51,0,.78S198,194,198,194.4Z" transform="translate(-14.72 -2.34)" fill="#bde5ed" stroke="#231f20" stroke-miterlimit="10" stroke-width="6"/><path d="M18.56,188.1,18,194.4c0-.36,0-.72,0-1.07s0-.52,0-.78,0-.66.06-1a3.57,3.57,0,0,1,0-.47c0-.44.08-.86.14-1.28C18.36,189.23,18.45,188.66,18.56,188.1Z" transform="translate(-14.72 -2.34)" fill="#bde5ed" stroke="#231f20" stroke-miterlimit="10" stroke-width="6"/><path d="M81.64,119.49c-.2.23-.42.45-.64.67" transform="translate(-14.72 -2.34)" fill="none" stroke="#231f20" stroke-miterlimit="10" stroke-width="6"/><path d="M198,194.4l-.56-6.3c.11.56.2,1.13.27,1.72.06.42.11.84.14,1.28a3.57,3.57,0,0,1,0,.47c0,.32.05.65.06,1s0,.51,0,.78S198,194,198,194.4Z" transform="translate(-14.72 -2.34)" fill="#93d5d7" stroke="#231f20" stroke-miterlimit="10" stroke-width="6"/><path d="M18.56,188.1,18,194.4c0-.36,0-.72,0-1.07s0-.52,0-.78,0-.66.06-1a3.57,3.57,0,0,1,0-.47c0-.44.08-.86.14-1.28C18.36,189.23,18.45,188.66,18.56,188.1Z" transform="translate(-14.72 -2.34)" fill="#93d5d7" stroke="#231f20" stroke-miterlimit="10" stroke-width="6"/><path d="M40.32,113.9a1.3,1.3,0,0,1-.33-.07" transform="translate(-14.72 -2.34)" fill="none" stroke="#231f20" stroke-miterlimit="10" stroke-width="6"/><path d="M176.8,110.64c-.24.59-1.18,2.78-2.81,5.89Z" transform="translate(-14.72 -2.34)" fill="#75aaaa" stroke="#231f20" stroke-miterlimit="10" stroke-width="6"/><path d="M198,194.4H18l.56-6.3c4.38-22.79,34.56-22.79,89.44-22.79s85.06,0,89.44,22.79c.11.56.2,1.13.27,1.72.06.43.1.85.14,1.28a3.57,3.57,0,0,1,0,.47c0,.32.05.65.06,1s0,.52,0,.78S198,194,198,194.4Z" transform="translate(-14.72 -2.34)" fill="#bde5ed"/><path d="M18.29,189.82c.07-.59.16-1.16.27-1.72L18,194.4c0-.36,0-.72,0-1.07s0-.52,0-.78,0-.66.06-1a3.57,3.57,0,0,1,0-.47C18.18,190.66,18.23,190.24,18.29,189.82Z" transform="translate(-14.72 -2.34)" fill="#bde5ed"/><path d="M197.44,188.1c-4.38-22.79-34.56-22.79-89.44-22.79s-85.06,0-89.44,22.79A36,36,0,0,1,54,158.4H162A36,36,0,0,1,197.44,188.1Z" transform="translate(-14.72 -2.34)" fill="#e5f5f9"/><path d="M81.64,119.49c-.2.23-.42.45-.64.67" transform="translate(-14.72 -2.34)" fill="none"/><path d="M198,194.4c0-.36,0-.72,0-1.07s0-.52,0-.78,0-.66-.06-1a3.57,3.57,0,0,0,0-.47c0-.44-.08-.86-.14-1.28-.07-.59-.16-1.16-.27-1.72" transform="translate(-14.72 -2.34)" fill="#93d5d7"/><path d="M18.56,188.1,18,194.4c0-.36,0-.72,0-1.07s0-.52,0-.78,0-.66.06-1a3.57,3.57,0,0,1,0-.47c0-.44.08-.86.14-1.28C18.36,189.23,18.45,188.66,18.56,188.1Z" transform="translate(-14.72 -2.34)" fill="#93d5d7"/><path d="M40.32,113.9a1.3,1.3,0,0,1-.33-.07" transform="translate(-14.72 -2.34)" fill="none"/><polygon points="162.15 108.14 139.36 156.06 47.2 156.06 24.41 108.14 86.52 108.14 79.93 78.1 39.93 65.36 80.45 55.7 93.28 10.9 106.11 55.7 146.63 65.36 106.63 78.1 100.04 108.14 162.15 108.14" fill="#bde5ed"/><polygon points="162.15 108.14 139.36 156.06 47.2 156.06 24.41 108.14 86.52 108.14 79.93 78.1 39.93 65.36 80.45 55.7 93.28 10.9 106.11 55.7 146.63 65.36 106.63 78.1 100.04 108.14 162.15 108.14" fill="#bde5ed"/><path d="M61.92,158.4s68.29.58,85-10.19c20-12.9,30-37.73,30-37.73L154.08,158.4Z" transform="translate(-14.72 -2.34)" fill="#75aaaa"/><polygon points="93.28 108.14 93.28 10.9 106.11 55.7 109.09 66.54 146.63 65.36 106.63 78.1 100.04 108.14 93.28 108.14" fill="#75aaaa"/><polygon points="39.93 65.36 85.49 60.81 93.28 10.9 80.45 55.7 39.93 65.36" fill="#e5f5f9"/><polygon points="41.17 143.37 32.74 115.27 86.52 108.14 24.41 108.14 41.17 143.37" fill="#e5f5f9"/></svg>